<?xml version="1.0" standalone="no"?>
<!DOCTYPE svg PUBLIC "-//W3C//DTD SVG 1.1//EN" "http://www.w3.org/Graphics/SVG/1.1/DTD/svg11.dtd" >
<svg xmlns="http://www.w3.org/2000/svg" xmlns:xlink="http://www.w3.org/1999/xlink" version="1.1">
<metadata>
Created by FontForge 20170731 at Wed Jan  4 18:33:48 2017
 By Aleksey,,,
Copyright (c) 2014 by Julieta Ulanovsky. All rights reserved, Design Modifications and new Weights 2015, Jasper @ Cannot Into Space Fonts
</metadata>
<defs>
<font id="TruenoLt" horiz-adv-x="350" >
  <font-face 
    font-family="Trueno"
    font-weight="300"
    font-stretch="normal"
    units-per-em="1000"
    panose-1="0 0 4 0 0 0 0 0 0 0"
    ascent="800"
    descent="-200"
    x-height="527"
    cap-height="700"
    bbox="-278 -221 1342 965"
    underline-thickness="50"
    underline-position="-200"
    unicode-range="U+0020-FB02"
  />
<missing-glyph horiz-adv-x="500" 
d="M0 0v700h500v-700h-500zM50 95l170 255l-170 255v-510zM80 50h340l-170 255zM80 650l170 -255l170 255h-340zM280 350l170 -255v510z" />
    <glyph glyph-name="fi" unicode="fi" horiz-adv-x="591" 
d="M43 450v64h68v58q0 83 50 130t119 47q55 -2 95 -27l-2 -73q-47 26 -92 26q-41 1 -67 -23.5t-26 -69.5v-68h151v-64h-151v-450h-77v450h-68zM407 678q0 23 14 38.5t36 15.5t36.5 -15.5t14.5 -38.5t-14.5 -38.5t-36.5 -15.5t-36 15.5t-14 38.5zM419 0v527h78v-527h-78z" />
    <glyph glyph-name="fl" unicode="fl" horiz-adv-x="610" 
d="M43 451v63h68v68q0 74 48 122.5t121 47.5q55 -2 96 -25l-2 -73q-37 26 -80 28q-45 1 -75.5 -30.5t-30.5 -80.5v-57h151v-63h-151v-451h-77v451h-68zM432 0v742h78v-742h-78z" />
    <glyph glyph-name=".notdef" horiz-adv-x="500" 
d="M0 0v700h500v-700h-500zM50 95l170 255l-170 255v-510zM80 50h340l-170 255zM80 650l170 -255l170 255h-340zM280 350l170 -255v510z" />
    <glyph glyph-name=".null" horiz-adv-x="0" 
 />
    <glyph glyph-name="nonmarkingreturn" horiz-adv-x="333" 
 />
    <glyph glyph-name="space" unicode=" " horiz-adv-x="274" 
 />
    <glyph glyph-name="exclam" unicode="!" horiz-adv-x="203" 
d="M62 44q0 22 14 37t34 15q21 0 35 -15t14 -37t-14 -37t-35 -15q-20 0 -34 15t-14 37zM73 519v169h75v-169l-12 -308h-52z" />
    <glyph glyph-name="quotedbl" unicode="&#x22;" horiz-adv-x="313" 
d="M60 473v227h62v-227h-62zM191 473v227h62v-227h-62z" />
    <glyph glyph-name="numbersign" unicode="#" horiz-adv-x="718" 
d="M35 185l5 63h145l25 198h-143l5 63h146l23 191h60l-23 -191h201l24 191h59l-23 -191h142l-4 -63h-146l-25 -198h143l-5 -63h-145l-23 -185h-60l23 185h-201l-23 -185h-60l23 185h-143zM245 248h201l25 198h-202z" />
    <glyph glyph-name="dollar" unicode="$" horiz-adv-x="610" 
d="M32 104l36 72q90 -88 209 -98v248q-47 14 -76 26t-62.5 34t-50 56t-16.5 80q0 75 55.5 123t149.5 56v122h61v-121q112 -6 198 -64l-34 -75q-75 49 -164 58v-228q51 -16 79.5 -27.5t65 -35t53.5 -58.5t17 -83q0 -80 -58.5 -131t-156.5 -59v-133h-61v132q-69 4 -133.5 32.5
t-111.5 73.5zM160 529q0 -45 30 -71t87 -46v208q-55 -5 -86 -29t-31 -62zM338 79q60 7 93.5 35t33.5 71q0 48 -32.5 75t-94.5 47v-228z" />
    <glyph glyph-name="percent" unicode="%" horiz-adv-x="942" 
d="M43 494q0 98 47 152.5t131 54.5t131.5 -55t47.5 -152q0 -98 -47.5 -152.5t-131.5 -54.5t-131 54.5t-47 152.5zM98 494q0 -75 32 -115.5t91 -40.5t91 40.5t32 115.5t-32 116t-91 41t-91 -41t-32 -116zM164 0l524 700h77l-523 -700h-78zM542 206q0 97 47 151.5t131 54.5
t131.5 -54.5t47.5 -151.5q0 -98 -47.5 -152.5t-131.5 -54.5t-131 54.5t-47 152.5zM597 206q0 -76 32 -116.5t91 -40.5t91 40.5t32 116.5q0 75 -32 115.5t-91 40.5t-91 -40.5t-32 -115.5z" />
    <glyph glyph-name="ampersand" unicode="&#x26;" horiz-adv-x="649" 
d="M58 188q0 69 42 114t117 85q-72 93 -72 165q0 66 47.5 108.5t123.5 42.5q72 0 117 -39t45 -102q0 -34 -13.5 -62.5t-42 -52t-52.5 -38.5t-65 -37q53 -62 170 -177q40 56 72 136l53 -41q-36 -82 -79 -140l121 -119l-42 -44l-117 116q-101 -107 -217 -107q-88 0 -148 55
t-60 137zM124 194q0 -59 41.5 -96.5t103.5 -37.5q89 0 169 88q-134 134 -187 196q-61 -34 -94 -68t-33 -82zM209 553q0 -57 61 -139q35 18 56 30.5t44 31.5t33.5 40t10.5 46q0 39 -26.5 63t-71.5 24q-48 0 -77.5 -27.5t-29.5 -68.5z" />
    <glyph glyph-name="quotesingle" unicode="'" horiz-adv-x="182" 
d="M60 473v227h62v-227h-62z" />
    <glyph glyph-name="parenleft" unicode="(" horiz-adv-x="303" 
d="M87 309q0 258 119 433h71q-116 -180 -116 -433q0 -255 116 -433h-71q-119 173 -119 433z" />
    <glyph glyph-name="parenright" unicode=")" horiz-adv-x="318" 
d="M88 -124q116 178 116 433q0 253 -116 433h71q119 -175 119 -433q0 -260 -119 -433h-71z" />
    <glyph glyph-name="asterisk" unicode="*" horiz-adv-x="328" 
d="M27 520l94 54l-94 52l22 43l94 -55l-1 107h44v-107l93 54l22 -42l-95 -52l95 -54l-22 -42l-94 55l1 -108h-44l1 108l-94 -55z" />
    <glyph glyph-name="plus" unicode="+" horiz-adv-x="491" 
d="M37 294v58h182v181h54v-181h181v-58h-181v-181h-54v181h-182z" />
    <glyph glyph-name="comma" unicode="," horiz-adv-x="197" 
d="M42 -72l33 73q-22 13 -22 43q0 22 13.5 36t33.5 14t34 -14t14 -37q0 -20 -15 -43l-47 -72h-44z" />
    <glyph glyph-name="hyphen" unicode="-" horiz-adv-x="363" 
d="M64 274v58h235v-58h-235z" />
    <glyph glyph-name="period" unicode="." horiz-adv-x="199" 
d="M51 44q0 22 14 37t35 15q20 0 34 -15t14 -37t-14 -37t-34 -15q-21 0 -35 15t-14 37z" />
    <glyph glyph-name="slash" unicode="/" horiz-adv-x="317" 
d="M-11 -122l312 942h69l-313 -942h-68z" />
    <glyph glyph-name="zero" unicode="0" horiz-adv-x="684" 
d="M53 350q0 170 75 261t214 91t214 -91t75 -261t-75 -261t-214 -91t-214 91t-75 261zM134 350q0 -284 208 -284t208 284t-208 284t-208 -284z" />
    <glyph glyph-name="one" unicode="1" horiz-adv-x="371" 
d="M17 624v76h221v-700h-79v624h-142z" />
    <glyph glyph-name="two" unicode="2" horiz-adv-x="581" 
d="M40 606q108 97 236 97q97 0 155 -46.5t58 -125.5q0 -95 -124 -227l-215 -228h379v-76h-481v66l262 285q44 44 70 89.5t26 79.5q0 51 -37 80t-103 29q-101 0 -191 -87z" />
    <glyph glyph-name="three" unicode="3" horiz-adv-x="527" 
d="M7 67l35 67q80 -66 181 -66q81 0 127 39.5t46 104.5t-45.5 99t-128.5 34h-86v51l205 227h-303v76h403v-54l-217 -241l39 -3q96 -5 153.5 -54t57.5 -132q0 -98 -67 -158.5t-178 -60.5q-124 0 -222 71z" />
    <glyph glyph-name="four" unicode="4" horiz-adv-x="577" 
d="M31 184v66l251 450h79l-244 -439h250v185h75v-185h106v-77h-106v-184h-75v184h-336z" />
    <glyph glyph-name="five" unicode="5" horiz-adv-x="565" 
d="M33 74l33 68q92 -70 195 -70q79 0 124.5 41t45.5 111q0 62 -45.5 98.5t-122.5 36.5q-95 0 -180 -17v358h406v-77h-332v-197q60 10 118 10q109 0 175 -58t66 -149q0 -105 -67.5 -168t-179.5 -63q-58 0 -122 20.5t-114 55.5z" />
    <glyph glyph-name="six" unicode="6" horiz-adv-x="604" 
d="M53 335q0 167 77.5 267.5t210.5 100.5q103 0 198 -50l-32 -64q-73 43 -161 43q-111 0 -166.5 -84t-47.5 -228q23 62 77.5 95t131.5 33q103 0 162.5 -59.5t59.5 -160.5q0 -107 -64.5 -169.5t-172.5 -62.5q-128 0 -200.5 89t-72.5 250zM151 223q-1 -58 43.5 -105.5
t126.5 -47.5q75 0 121 43t46 116q0 70 -43.5 110.5t-117.5 40.5q-80 0 -128.5 -46t-47.5 -111z" />
    <glyph glyph-name="seven" unicode="7" horiz-adv-x="554" 
d="M39 623v77h486v-67l-291 -633h-85l288 623h-326v-102z" />
    <glyph glyph-name="eight" unicode="8" horiz-adv-x="617" 
d="M50 194q0 66 40 112.5t111 67.5q-56 22 -86.5 62t-30.5 93q0 81 60.5 127.5t163.5 46.5q105 0 165 -47t60 -129q0 -108 -114 -153q69 -21 108 -67t39 -111q0 -93 -69 -146.5t-188 -53.5q-120 0 -189.5 53t-69.5 145zM126 203q0 -66 48.5 -102.5t134.5 -36.5
q85 0 133.5 36.5t48.5 102.5q0 62 -48.5 97.5t-134.5 35.5q-85 0 -133.5 -35.5t-48.5 -97.5zM153 522q0 -56 41 -87.5t115 -31.5q73 0 114 31.5t41 87.5t-41 87.5t-114 31.5q-74 0 -115 -31.5t-41 -87.5z" />
    <glyph glyph-name="nine" unicode="9" horiz-adv-x="604" 
d="M49 472q0 107 64.5 169.5t172.5 62.5q128 0 200.5 -89t72.5 -249q0 -168 -77.5 -268.5t-210.5 -100.5q-103 0 -198 50l32 64q73 -43 161 -43q111 0 166.5 84t47.5 228q-23 -62 -77.5 -95t-131.5 -33q-103 0 -162.5 59.5t-59.5 160.5zM124 471q0 -70 43.5 -110.5
t117.5 -40.5q80 0 128.5 46t48.5 111q0 58 -44 105.5t-127 47.5q-75 0 -121 -42.5t-46 -116.5z" />
    <glyph glyph-name="colon" unicode=":" horiz-adv-x="196" 
d="M51 44q0 22 14 37t35 15q20 0 34 -15t14 -37t-14 -37t-34 -15q-21 0 -35 15t-14 37zM51 341q0 22 14 37t35 15q20 0 34 -15t14 -37t-14 -37t-34 -15q-21 0 -35 15t-14 37z" />
    <glyph glyph-name="semicolon" unicode=";" horiz-adv-x="198" 
d="M42 -72l33 73q-22 13 -22 43q0 22 13.5 36t33.5 14t34 -14t14 -37q0 -20 -15 -43l-47 -72h-44zM51 341q0 22 14 37t35 15q20 0 34 -15t14 -37t-14 -37t-34 -15q-21 0 -35 15t-14 37z" />
    <glyph glyph-name="less" unicode="&#x3c;" horiz-adv-x="491" 
d="M37 289v75l417 186v-66l-363 -158l363 -158v-65z" />
    <glyph glyph-name="equal" unicode="=" horiz-adv-x="491" 
d="M37 190v59h417v-59h-417zM37 397v59h417v-59h-417z" />
    <glyph glyph-name="greater" unicode="&#x3e;" horiz-adv-x="491" 
d="M37 106v66l363 158l-363 158v65l417 -186v-75z" />
    <glyph glyph-name="question" unicode="?" horiz-adv-x="424" 
d="M6 510q4 85 56 132t139 47q85 0 137 -41.5t52 -119.5q0 -45 -16.5 -80t-40 -58t-47 -45t-40 -53.5t-16.5 -71.5h-62q0 46 15.5 81t37 57t43.5 42.5t37.5 50t15.5 66.5q0 50 -33.5 76t-89.5 26t-89 -28t-36 -83zM149 44q0 22 14 37t34 15q21 0 35 -15t14 -37t-14 -37
t-35 -15q-20 0 -34 15t-14 37z" />
    <glyph glyph-name="at" unicode="@" horiz-adv-x="986" 
d="M40 266q0 189 131.5 315.5t326.5 126.5q194 0 321 -124.5t127 -315.5q0 -116 -48.5 -186.5t-126.5 -70.5q-44 0 -73.5 23.5t-33.5 67.5l-1 33q-30 -52 -81.5 -80.5t-114.5 -28.5q-101 0 -170.5 68t-69.5 174q0 105 65.5 175.5t167.5 70.5q67 0 118.5 -31t68.5 -69v92h74
v-374q0 -32 16 -49t41 -17q46 0 77 56t31 144q0 165 -107.5 272.5t-280.5 107.5q-169 0 -283 -109.5t-114 -270.5q0 -158 109.5 -261t274.5 -103q46 0 98.5 14.5t89.5 40.5l28 -56q-41 -28 -102 -45t-114 -17q-191 0 -318 121.5t-127 305.5zM307 272q0 -74 47 -123.5
t120 -49.5q75 0 122 49t47 123q0 72 -47.5 120t-122.5 48q-73 0 -119.5 -48t-46.5 -119z" />
    <glyph glyph-name="A" unicode="A" horiz-adv-x="718" 
d="M4 0l314 700h83l313 -700h-87l-78 177h-382l-78 -177h-85zM201 254h314l-158 355z" />
    <glyph glyph-name="B" unicode="B" horiz-adv-x="716" 
d="M106 0v700h295q106 0 166 -46.5t60 -128.5q0 -62 -34 -103.5t-95 -54.5q76 -11 118 -58t42 -119q0 -89 -67 -139.5t-185 -50.5h-300zM186 76h211q86 0 133 32.5t47 92.5q0 57 -47.5 89t-132.5 32h-211v-246zM186 398h211q71 0 110 29.5t39 84.5q0 53 -39 82t-110 29h-211
v-225z" />
    <glyph glyph-name="C" unicode="C" horiz-adv-x="700" 
d="M40 351q0 147 106.5 249t258.5 102q71 0 138 -27t118 -75l-48 -61q-86 88 -207 88q-119 0 -202 -80.5t-83 -195.5t83.5 -195.5t201.5 -80.5t207 84l49 -55q-115 -108 -260 -108q-151 0 -256.5 103t-105.5 252z" />
    <glyph glyph-name="D" unicode="D" horiz-adv-x="789" 
d="M106 0v700h283q153 0 256.5 -100.5t103.5 -249.5t-104 -249.5t-259 -100.5h-280zM186 76h204q118 0 198 78t80 195t-81.5 195.5t-199.5 78.5h-201v-547z" />
    <glyph glyph-name="E" unicode="E" horiz-adv-x="651" 
d="M106 0v700h475v-77h-395v-230h353v-77h-353v-240h408v-76h-488z" />
    <glyph glyph-name="F" unicode="F" horiz-adv-x="563" 
d="M106 0v700h445v-77h-365v-246h327v-77h-327v-300h-80z" />
    <glyph glyph-name="G" unicode="G" horiz-adv-x="753" 
d="M40 350q0 148 107 250t262 102q149 0 258 -96l-46 -60q-91 81 -212 81q-120 0 -204 -81t-84 -196q0 -116 84.5 -197t204.5 -81q98 0 184 59v211h71v-254q-53 -42 -122 -67t-138 -25q-152 0 -258.5 103t-106.5 251z" />
    <glyph glyph-name="H" unicode="H" horiz-adv-x="794" 
d="M106 0v700h80v-316h422v316h80v-700h-80v308h-422v-308h-80z" />
    <glyph glyph-name="I" unicode="I" horiz-adv-x="292" 
d="M106 0v700h80v-700h-80z" />
    <glyph glyph-name="J" unicode="J" horiz-adv-x="483" 
d="M0 96l40 64q67 -81 153 -81q58 0 89 34t31 99v488h81v-490q0 -102 -53 -158t-147 -56q-116 0 -194 100z" />
    <glyph glyph-name="K" unicode="K" horiz-adv-x="699" 
d="M106 0v700h80v-403l376 403h95l-277 -304l298 -396h-98l-258 332l-136 -149v-183h-80z" />
    <glyph glyph-name="L" unicode="L" horiz-adv-x="517" 
d="M106 0v700h80v-624h307v-76h-387z" />
    <glyph glyph-name="M" unicode="M" horiz-adv-x="921" 
d="M106 0v700h99l256 -504l255 504h98v-700h-74l-1 577l-255 -503h-48l-254 503v-577h-76z" />
    <glyph glyph-name="N" unicode="N" horiz-adv-x="795" 
d="M106 0v700h83l420 -563v563h79v-700h-82l-420 562v-562h-80z" />
    <glyph glyph-name="O" unicode="O" horiz-adv-x="813" 
d="M40 350q0 148 106.5 250t260.5 102q153 0 259.5 -102t106.5 -250t-106.5 -251t-259.5 -103q-154 0 -260.5 103t-106.5 251zM121 350q0 -115 84 -196t202 -81q117 0 200.5 81t83.5 196t-83.5 195.5t-200.5 80.5q-118 0 -202 -80.5t-84 -195.5z" />
    <glyph glyph-name="P" unicode="P" horiz-adv-x="669" 
d="M106 0v700h263q130 0 201.5 -61.5t71.5 -173.5q0 -116 -71.5 -180t-201.5 -64h-183v-221h-80zM186 298h180q96 0 147.5 42t51.5 123q0 79 -51.5 119.5t-147.5 40.5h-180v-325z" />
    <glyph glyph-name="Q" unicode="Q" horiz-adv-x="830" 
d="M40 350q0 148 106.5 250t260.5 102q153 0 259.5 -102t106.5 -250q0 -123 -76 -217.5t-195 -124.5q73 -78 142 -78q61 0 135 63l35 -60q-83 -77 -179 -77q-119 0 -220 140h-8q-154 0 -260.5 103t-106.5 251zM121 350q0 -115 84 -196t202 -81q117 0 200.5 81t83.5 196
t-83.5 195.5t-200.5 80.5q-118 0 -202 -80.5t-84 -195.5z" />
    <glyph glyph-name="R" unicode="R" horiz-adv-x="723" 
d="M106 0v700h266q131 0 203.5 -61.5t72.5 -173.5q0 -86 -40.5 -144t-116.5 -83l164 -238h-91l-145 223q-30 -2 -47 -2h-186v-221h-80zM186 298h186q96 0 147.5 42t51.5 123q0 79 -51.5 119.5t-147.5 40.5h-186v-325z" />
    <glyph glyph-name="S" unicode="S" horiz-adv-x="611" 
d="M32 104l36 72q48 -47 110.5 -73t122.5 -26q76 0 120 29t44 79q0 37 -21.5 63t-56 40.5t-76.5 27t-84 27t-77 35t-56.5 57t-21.5 87.5q0 82 66.5 131.5t175.5 49.5q125 0 222 -65l-34 -75q-89 59 -193 59q-68 0 -108.5 -24.5t-40.5 -68.5q0 -42 29 -70t73 -41.5t95 -31
t94.5 -36.5t72.5 -60.5t29 -100.5q0 -87 -70 -139.5t-183 -52.5q-75 0 -146 29t-122 78z" />
    <glyph glyph-name="T" unicode="T" horiz-adv-x="558" 
d="M11 623v77h537v-77h-229v-623h-80v623h-228z" />
    <glyph glyph-name="U" unicode="U" horiz-adv-x="768" 
d="M90 288v412h80v-412q0 -101 57.5 -158t157.5 -57t156.5 56.5t56.5 158.5v412h80v-412q0 -137 -78 -214.5t-215 -77.5q-138 0 -216.5 77.5t-78.5 214.5z" />
    <glyph glyph-name="V" unicode="V" horiz-adv-x="665" 
d="M6 700h86l241 -607l242 607h84l-286 -700h-83z" />
    <glyph glyph-name="W" unicode="W" horiz-adv-x="1017" 
d="M6 700h86l192 -607l190 606l80 1l192 -607l190 607h83l-235 -700h-82l-189 590l-191 -590h-82z" />
    <glyph glyph-name="X" unicode="X" horiz-adv-x="665" 
d="M22 0l257 360l-239 340h94l193 -270l195 270h94l-238 -336l258 -364h-96l-213 293l-211 -293h-94z" />
    <glyph glyph-name="Y" unicode="Y" horiz-adv-x="625" 
d="M4 700h83l227 -365l224 365h82l-266 -460v-240h-79v237z" />
    <glyph glyph-name="Z" unicode="Z" horiz-adv-x="660" 
d="M43 0v64l464 559h-451v77h556v-64l-464 -560h469l-1 -76h-573z" />
    <glyph glyph-name="bracketleft" unicode="[" horiz-adv-x="334" 
d="M106 -124v866h197v-67h-126v-732h126v-67h-197z" />
    <glyph glyph-name="backslash" unicode="\" horiz-adv-x="447" 
d="M65 820h68l313 -942h-68z" />
    <glyph glyph-name="bracketright" unicode="]" horiz-adv-x="412" 
d="M110 -57h126v732h-126v67h196v-866h-196v67z" />
    <glyph glyph-name="asciicircum" unicode="^" horiz-adv-x="515" 
d="M34 130l185 396h75l186 -396h-65l-158 345l-158 -345h-65z" />
    <glyph glyph-name="underscore" unicode="_" horiz-adv-x="554" 
d="M0 -152h554v-52h-554v52z" />
    <glyph glyph-name="grave" unicode="`" 
d="M71 713l80 37l120 -136h-75z" />
    <glyph glyph-name="a" unicode="a" horiz-adv-x="577" 
d="M50 157q0 69 52 109.5t145 41.5h173v31q0 59 -36 91t-105 32q-80 0 -167 -60l-33 57q56 37 103.5 54t111.5 17q97 0 149.5 -48t53.5 -134l1 -348h-76v81q-63 -85 -193 -85q-80 0 -129.5 45.5t-49.5 115.5zM123 160q0 -44 33 -70t88 -26q67 0 114.5 31.5t62.5 86.5v63
h-164q-134 0 -134 -85z" />
    <glyph glyph-name="b" unicode="b" horiz-adv-x="676" 
d="M100 0v742h78v-329q62 117 203 117q112 0 182.5 -75t70.5 -193q0 -117 -69.5 -191t-181.5 -74q-143 0 -205 116v-113h-78zM178 264q0 -86 53 -141t136 -55q82 0 135 55t53 141q0 85 -53 140.5t-135 55.5q-83 0 -136 -55t-53 -141z" />
    <glyph glyph-name="c" unicode="c" horiz-adv-x="561" 
d="M42 263q0 117 73.5 191.5t187.5 74.5q127 1 203 -78l-43 -55q-64 61 -157 61q-82 0 -134.5 -54t-52.5 -140t52.5 -140.5t134.5 -54.5q106 0 163 68l45 -48q-75 -91 -211 -91q-115 0 -188 74t-73 192z" />
    <glyph glyph-name="d" unicode="d" horiz-adv-x="679" 
d="M42 264q0 118 70.5 192.5t182.5 74.5q70 0 123.5 -30.5t82.5 -87.5v329h78v-742h-78v113q-62 -117 -205 -117q-112 0 -183 75t-71 193zM120 262q0 -86 53.5 -141t137.5 -55q83 0 136.5 55t53.5 141t-53.5 142t-136.5 56q-84 0 -137.5 -56t-53.5 -142z" />
    <glyph glyph-name="e" unicode="e" horiz-adv-x="588" 
d="M42 263q0 118 73 192t188 74q125 1 188.5 -79t57.5 -217h-430q10 -77 62 -122.5t129 -45.5q100 0 163 66l43 -46q-79 -88 -212 -88q-116 0 -189 74t-73 192zM119 297h360q-4 76 -51.5 120.5t-124.5 44.5q-75 0 -125 -45t-59 -120z" />
    <glyph glyph-name="f" unicode="f" horiz-adv-x="324" 
d="M43 447v64h68v58q0 82 49.5 129.5t119.5 47.5q66 -2 113 -37l-32 -63q-38 27 -80 27q-40 0 -66.5 -25t-26.5 -69v-68h151v-64h-151v-447h-77v447h-68z" />
    <glyph glyph-name="g" unicode="g" horiz-adv-x="636" 
d="M42 278q0 110 66 180.5t172 71.5q136 0 196 -110v107h78v-472q0 -115 -72.5 -183t-192.5 -68q-117 1 -216 76l36 60q79 -66 177 -67q86 0 138 49t52 131v80q-58 -110 -194 -110q-106 0 -173 71t-67 184zM115 275q1 -81 51.5 -133.5t129.5 -52.5t129.5 52.5t50.5 133.5
q0 82 -50.5 134.5t-129.5 52.5t-129.5 -52.5t-51.5 -134.5z" />
    <glyph glyph-name="h" unicode="h" horiz-adv-x="662" 
d="M100 0v742h78v-333q52 119 205 121q94 0 147 -54.5t53 -150.5v-325h-78v304q0 70 -39.5 109t-109.5 39q-83 -1 -130.5 -54t-47.5 -139v-259h-78z" />
    <glyph glyph-name="i" unicode="i" horiz-adv-x="267" 
d="M82 678q0 23 14.5 38.5t36.5 15.5t36.5 -15.5t14.5 -38.5t-14.5 -38.5t-36.5 -15.5t-36.5 15.5t-14.5 38.5zM95 0v527h77v-527h-77z" />
    <glyph glyph-name="j" unicode="j" horiz-adv-x="267" 
d="M-88 -161l28 64q37 -27 76 -27q36 0 56 23.5t20 70.5v557h78v-547q0 -87 -43 -132.5t-108 -44.5q-60 0 -107 36zM78 678q0 23 15.5 39t37.5 16q23 0 38 -16t15 -39t-15 -39t-38 -16q-22 0 -37.5 16t-15.5 39z" />
    <glyph glyph-name="k" unicode="k" horiz-adv-x="573" 
d="M100 0v742h78v-485l271 270h92l-197 -204l218 -323h-93l-180 266l-111 -115v-151h-78z" />
    <glyph glyph-name="l" unicode="l" horiz-adv-x="278" 
d="M100 0v742h78v-742h-78z" />
    <glyph glyph-name="m" unicode="m" horiz-adv-x="1044" 
d="M95 0v527h77v-119q51 120 201 122q74 0 123 -36t66 -102q48 136 208 138q92 0 144 -54.5t52 -150.5v-325h-78v304q0 70 -39 109.5t-107 39.5q-81 -2 -126.5 -55t-45.5 -139v-259h-79v304q0 70 -38.5 109.5t-107.5 39.5q-80 -2 -126.5 -55t-46.5 -139v-259h-77z" />
    <glyph glyph-name="n" unicode="n" horiz-adv-x="656" 
d="M95 0v527h78v-116q54 117 204 119q94 0 147 -54.5t53 -150.5v-325h-78v304q0 70 -39.5 109t-109.5 39q-77 -1 -123.5 -47t-53.5 -122v-283h-78z" />
    <glyph glyph-name="o" unicode="o" horiz-adv-x="618" 
d="M42 264q0 117 75 191t192 74t192 -74t75 -191q0 -118 -75 -192.5t-192 -74.5t-192 74.5t-75 192.5zM120 263q0 -87 53 -141.5t136 -54.5t136 54.5t53 141.5q0 86 -53 140.5t-136 54.5t-136 -54.5t-53 -140.5z" />
    <glyph glyph-name="p" unicode="p" horiz-adv-x="676" 
d="M100 -194v721h78v-114q62 117 203 117q112 0 182.5 -75t70.5 -193q0 -117 -69.5 -191t-181.5 -74q-143 0 -205 116v-307h-78zM178 264q0 -86 53 -141t136 -55q82 0 135 55t53 141q0 85 -53 140.5t-135 55.5q-83 0 -136 -55t-53 -141z" />
    <glyph glyph-name="q" unicode="q" horiz-adv-x="679" 
d="M42 264q0 118 70.5 192.5t182.5 74.5q70 0 123.5 -30.5t82.5 -87.5v114h78v-721h-78v307q-62 -117 -205 -117q-112 0 -183 75t-71 193zM120 262q0 -86 53.5 -141t137.5 -55q83 0 136.5 55t53.5 141t-53.5 142t-136.5 56q-84 0 -137.5 -56t-53.5 -142z" />
    <glyph glyph-name="r" unicode="r" horiz-adv-x="372" 
d="M95 0v527h78v-117q54 118 189 120v-79q-82 1 -132 -45.5t-57 -125.5v-280h-78z" />
    <glyph glyph-name="s" unicode="s" horiz-adv-x="453" 
d="M25 71l30 59q33 -31 80.5 -49t94.5 -18q49 0 80.5 19t32.5 56q1 35 -29 56t-73 33.5t-86 27t-73 47.5t-30 85q0 71 52.5 107t130.5 36q98 0 168 -48l-30 -62q-68 43 -143 43q-47 0 -75.5 -17.5t-28.5 -52.5q0 -32 30.5 -51.5t73.5 -31.5t86 -27.5t73.5 -49.5t30.5 -86
q0 -74 -55.5 -112t-137.5 -38q-125 0 -202 74z" />
    <glyph glyph-name="t" unicode="t" horiz-adv-x="390" 
d="M38 447v63h76v139h77v-139l167 1v-64h-167v-287q0 -88 70 -88q41 0 84 27l22 -63q-57 -39 -119 -40q-61 0 -97.5 37.5t-36.5 112.5v301h-76z" />
    <glyph glyph-name="u" unicode="u" horiz-adv-x="647" 
d="M77 202v325h78v-304q0 -70 39 -109t107 -39q81 1 127 54.5t46 138.5v259h78v-527h-78v119q-51 -120 -200 -122q-92 0 -144.5 55t-52.5 150z" />
    <glyph glyph-name="v" unicode="v" horiz-adv-x="498" 
d="M4 527h83l168 -446l167 446h79l-207 -527h-81z" />
    <glyph glyph-name="w" unicode="w" horiz-adv-x="864" 
d="M4 527h82l156 -446l153 446h82l155 -446l154 446h81l-195 -527h-81l-155 428l-154 -428h-81z" />
    <glyph glyph-name="x" unicode="x" horiz-adv-x="529" 
d="M21 0l192 271l-179 256h90l140 -200l142 200h86l-176 -256l189 -271h-91l-150 215l-155 -215h-88z" />
    <glyph glyph-name="y" unicode="y" horiz-adv-x="502" 
d="M-6 -159l33 65q35 -25 74 -25q64 0 96 74l22 49l-218 523h82l175 -435l167 435h80l-242 -602q-50 -123 -158 -123q-63 0 -111 39z" />
    <glyph glyph-name="z" unicode="z" horiz-adv-x="526" 
d="M52 0v59l330 399l-321 1v68l415 -1v-59l-330 -399l338 -1v-68z" />
    <glyph glyph-name="braceleft" unicode="{" horiz-adv-x="311" 
d="M43 274v69h26q48 0 48 59v222q0 64 33.5 91.5t109.5 27.5h28v-67q-53 0 -76.5 -18t-23.5 -57v-194q0 -44 -13.5 -66.5t-44.5 -32.5q31 -9 44.5 -31.5t13.5 -66.5v-195q0 -39 23 -56.5t77 -17.5v-67h-28q-76 0 -109.5 27.5t-33.5 91.5v221q0 60 -48 60h-26z" />
    <glyph glyph-name="bar" unicode="|" horiz-adv-x="250" 
d="M94 -121v936h62v-936h-62z" />
    <glyph glyph-name="braceright" unicode="}" horiz-adv-x="356" 
d="M90 -59q54 0 77 17.5t23 56.5v195q0 44 13.5 66.5t44.5 31.5q-31 10 -44.5 32.5t-13.5 66.5v194q0 39 -23.5 57t-76.5 18v67h28q76 0 109.5 -27.5t33.5 -91.5v-222q0 -59 48 -59h26v-69h-26q-48 0 -48 -60v-221q0 -64 -33.5 -91.5t-109.5 -27.5h-28v67z" />
    <glyph glyph-name="asciitilde" unicode="~" horiz-adv-x="491" 
d="M73 264q0 119 86 119q33 0 86.5 -31t74.5 -31q43 0 43 54h56q0 -119 -86 -119q-36 0 -88 30.5t-73 30.5q-43 0 -43 -53h-56z" />
    <glyph glyph-name="nbspace" unicode="&#xa0;" horiz-adv-x="274" 
 />
    <glyph glyph-name="exclamdown" unicode="&#xa1;" horiz-adv-x="202" 
d="M61 482q0 22 14 37t34 15q21 0 35 -15t14 -37q0 -23 -14 -37.5t-35 -14.5t-34.5 14.5t-13.5 37.5zM72 7l11 308h52l11 -308v-169h-74v169z" />
    <glyph glyph-name="cent" unicode="&#xa2;" horiz-adv-x="561" 
d="M42 263q0 108 63 180.5t164 83.5v146h61v-145q110 -8 176 -77l-43 -55q-56 53 -133 60v-387q89 8 139 67l45 -48q-67 -81 -184 -90v-132h-61v133q-102 11 -164.5 83.5t-62.5 180.5zM119 263q0 -76 41.5 -128t108.5 -64v383q-68 -12 -109 -63.5t-41 -127.5z" />
    <glyph glyph-name="sterling" unicode="&#xa3;" horiz-adv-x="541" 
d="M43 0v70h87v239h-87v62h87v118q0 103 51 158.5t146 55.5q115 0 189 -93l-34 -64q-64 81 -147 81q-61 0 -93 -35.5t-32 -103.5v-117h182v-62h-182v-239h294v-70h-461z" />
    <glyph glyph-name="currency" unicode="&#xa4;" horiz-adv-x="717" 
d="M42 49l103 104q-59 73 -59 165q0 91 58 165l-102 103l45 49l106 -105q74 55 165 55q93 0 167 -55l105 105l45 -49l-101 -102q59 -73 59 -166t-61 -165l103 -104l-45 -49l-107 106q-74 -53 -165 -53q-92 0 -163 54l-108 -107zM149 318q0 -80 61.5 -137t147.5 -57
q88 0 150 57t62 137q0 82 -62 139.5t-150 57.5q-86 0 -147.5 -57.5t-61.5 -139.5z" />
    <glyph glyph-name="yen" unicode="&#xa5;" horiz-adv-x="619" 
d="M5 700h82l227 -365l224 365h82l-225 -389h160v-40h-183l-17 -29v-67h200v-40h-200v-135h-80v135h-197v40h197v63l-20 33h-177v40h154z" />
    <glyph glyph-name="brokenbar" unicode="&#xa6;" horiz-adv-x="250" 
d="M94 -121v349h62v-349h-62zM94 466v349h62v-349h-62z" />
    <glyph glyph-name="section" unicode="&#xa7;" horiz-adv-x="472" 
d="M24 -8l27 52q80 -68 178 -68q54 0 90 23t36 59q0 35 -31.5 57t-77 35.5t-90.5 29t-76.5 48t-31.5 82.5q0 49 35 81.5t97 43.5q-64 23 -91 51.5t-27 71.5q0 61 50.5 98.5t133.5 37.5q91 0 169 -48l-26 -53q-69 42 -143 42q-52 0 -84 -20t-32 -54q0 -35 31.5 -57.5
t77 -35.5t91 -28.5t77 -48t31.5 -83.5q0 -46 -33.5 -82.5t-79.5 -46.5q52 -20 76 -48.5t24 -71.5q0 -63 -54 -103t-139 -40q-124 0 -208 76zM117 317q0 -40 41.5 -67.5t98.5 -27.5q51 0 81.5 22t30.5 58q0 40 -36.5 64t-97.5 24q-54 0 -86 -20t-32 -53z" />
    <glyph glyph-name="dieresis" unicode="&#xa8;" horiz-adv-x="373" 
d="M44 684q0 22 14 36.5t34 14.5t34 -14.5t14 -36.5t-14 -36.5t-34 -14.5t-34 14.5t-14 36.5zM211 684q0 22 13.5 36.5t33.5 14.5q21 0 34.5 -14.5t13.5 -36.5t-13.5 -36.5t-34.5 -14.5q-20 0 -33.5 14.5t-13.5 36.5z" />
    <glyph glyph-name="copyright" unicode="&#xa9;" horiz-adv-x="757" 
d="M40 348q0 140 98.5 240.5t240.5 100.5t240 -99.5t98 -239.5t-99 -240.5t-241 -100.5q-141 0 -239 99.5t-98 239.5zM83 348q0 -122 85 -207.5t209 -85.5q125 0 211.5 86.5t86.5 208.5t-85.5 207.5t-210.5 85.5t-210.5 -86.5t-85.5 -208.5zM201 349q0 73 53 124t130 51
q75 0 130 -52l-27 -32q-45 42 -103 42t-98.5 -38.5t-40.5 -93.5q0 -56 40.5 -95.5t98.5 -39.5q57 0 103 41l27 -29q-57 -55 -132 -55q-76 0 -128.5 51.5t-52.5 125.5z" />
    <glyph glyph-name="ordfeminine" unicode="&#xaa;" horiz-adv-x="380" 
d="M40 549q0 41 32 63.5t90 22.5h104v21q-2 67 -84 67q-51 0 -108 -33l-16 42q70 39 136 39q61 0 94.5 -29t33.5 -80l1 -204h-57v56q-39 -58 -120 -58q-48 0 -77 25.5t-29 67.5zM94 553q0 -25 19 -40.5t51 -15.5q74 0 102 60v46h-93q-79 0 -79 -50z" />
    <glyph glyph-name="guillemotleft" unicode="&#xab;" horiz-adv-x="427" 
d="M37 255l113 168h68l-107 -168l107 -166h-68zM191 255l113 168h68l-107 -168l107 -166h-68z" />
    <glyph glyph-name="logicalnot" unicode="&#xac;" horiz-adv-x="551" 
d="M37 330v59h431v-239h-59v180h-372z" />
    <glyph glyph-name="softhyphen" unicode="&#xad;" horiz-adv-x="364" 
d="M64 274v58h235v-58h-235z" />
    <glyph glyph-name="registered" unicode="&#xae;" horiz-adv-x="757" 
d="M40 348q0 140 98.5 240.5t240.5 100.5t240 -99.5t98 -239.5t-99 -240.5t-241 -100.5q-141 0 -239 99.5t-98 239.5zM83 348q0 -122 85 -207.5t209 -85.5q125 0 211.5 86.5t86.5 208.5t-85.5 207.5t-210.5 85.5t-210.5 -86.5t-85.5 -208.5zM251 182v351h134q68 0 104 -30.5
t36 -87.5q0 -88 -79 -113l84 -120h-50l-74 112q-7 -1 -21 -1h-92v-111h-42zM293 331h92q47 0 73 22t26 62q0 39 -26 59.5t-73 20.5h-92v-164z" />
    <glyph glyph-name="macron" unicode="&#xaf;" 
d="M55 646v62h241v-62h-241z" />
    <glyph glyph-name="degree" unicode="&#xb0;" horiz-adv-x="328" 
d="M79 692q0 46 34 79.5t80 33.5q47 0 81.5 -33.5t34.5 -79.5t-34.5 -79t-81.5 -33t-80.5 33t-33.5 79zM117 692q0 -29 22.5 -50.5t53.5 -21.5q32 0 55 21.5t23 50.5t-23 51t-55 22q-31 0 -53.5 -22t-22.5 -51z" />
    <glyph glyph-name="plusminus" unicode="&#xb1;" horiz-adv-x="491" 
d="M37 32v59h417v-59h-417zM37 354v58h182v178h54v-178h181v-58h-181v-177h-54v177h-182z" />
    <glyph glyph-name="twosuperior" unicode="&#xb2;" horiz-adv-x="380" 
d="M34 643q70 59 150 59q60 0 96 -28t36 -75q0 -58 -77 -133l-125 -127h224v-50h-298v44l159 165q55 55 55 94q0 27 -21 42.5t-58 15.5q-61 0 -116 -52z" />
    <glyph glyph-name="threesuperior" unicode="&#xb3;" horiz-adv-x="348" 
d="M16 329l25 48q47 -42 109 -42q46 0 72 21.5t26 57.5q0 35 -26 53.5t-73 18.5h-55v36l124 129h-184v47h252v-37l-127 -134l23 -1q56 -4 90 -33.5t34 -77.5q0 -58 -41 -93t-111 -35q-81 0 -138 42z" />
    <glyph glyph-name="acute" unicode="&#xb4;" 
d="M75 614l120 136l79 -38l-124 -98h-75z" />
    <glyph glyph-name="mu" unicode="&#xb5;" horiz-adv-x="669" 
d="M99 202v325h79v-325q6 -60 44 -93.5t101 -33.5q81 1 127 54.5t46 138.5v259h78v-527h-78v119q-51 -120 -200 -122q-71 0 -118 32v-223h-78v371q-1 8 -1 25z" />
    <glyph glyph-name="paragraph" unicode="&#xb6;" horiz-adv-x="592" 
d="M2 556q0 78 53 132t161 54h270v-852h-61v798h-151v-798h-61v488q-12 -1 -34 -1q-50 0 -86.5 17.5t-55 46t-27 57.5t-8.5 58z" />
    <glyph glyph-name="periodcentered" unicode="&#xb7;" horiz-adv-x="196" 
d="M51 282q0 22 13.5 36t33.5 14t33.5 -14t13.5 -36t-13.5 -37t-33.5 -15t-33.5 15t-13.5 37z" />
    <glyph glyph-name="cedilla" unicode="&#xb8;" 
d="M86 -191l17 43q25 -20 59 -20q24 0 39 14t14 33q0 17 -13.5 29.5t-36.5 12.5q-19 0 -33 -3l38 91h49l-26 -59q32 -4 51.5 -24t19.5 -52q1 -40 -26.5 -64.5t-70.5 -24.5q-47 0 -81 24z" />
    <glyph glyph-name="onesuperior" unicode="&#xb9;" horiz-adv-x="254" 
d="M21 648v52h144v-411h-59v359h-85z" />
    <glyph glyph-name="ordmasculine" unicode="&#xba;" horiz-adv-x="402" 
d="M36 614q0 70 46 113.5t119 43.5t119.5 -43.5t46.5 -113.5t-46.5 -114t-119.5 -44q-74 0 -119.5 44t-45.5 114zM93 613q0 -48 30 -78t78 -30q47 0 77 29.5t30 78.5q0 48 -30 78t-77 30t-77.5 -30t-30.5 -78z" />
    <glyph glyph-name="guillemotright" unicode="&#xbb;" horiz-adv-x="434" 
d="M76 89l107 168l-107 166h68l113 -166l-113 -168h-68zM230 89l107 168l-107 166h68l113 -166l-113 -168h-68z" />
    <glyph glyph-name="onequarter" unicode="&#xbc;" horiz-adv-x="776" 
d="M21 648v52h144v-411h-59v359h-85zM39 0l524 700h77l-523 -700h-78zM425 104v46l149 261h58l-147 -260h144v110h56v-110h63v-47h-63v-104h-56v104h-204z" />
    <glyph glyph-name="onehalf" unicode="&#xbd;" horiz-adv-x="799" 
d="M21 648v52h144v-411h-59v359h-85zM39 0l524 700h77l-523 -700h-78zM453 355q71 58 150 58q59 0 95.5 -28t36.5 -74q0 -59 -77 -134l-125 -127h224v-50h-298v44l159 165q55 55 55 94q0 27 -21 42.5t-58 15.5q-60 0 -116 -51z" />
    <glyph glyph-name="threequarters" unicode="&#xbe;" horiz-adv-x="841" 
d="M16 329l25 48q47 -42 109 -42q46 0 72 21.5t26 57.5q0 35 -26 53.5t-73 18.5h-55v36l124 129h-184v47h252v-37l-127 -134l23 -1q56 -4 90 -33.5t34 -77.5q0 -58 -41 -93t-111 -35q-81 0 -138 42zM103 0l524 700h77l-523 -700h-78zM490 104v46l149 261h58l-147 -260h144
v110h56v-110h63v-47h-63v-104h-56v104h-204z" />
    <glyph glyph-name="questiondown" unicode="&#xbf;" horiz-adv-x="424" 
d="M35 -3q0 45 16.5 80t40 58t47 45.5t40 54t16.5 71.5h61q0 -46 -15.5 -81t-37.5 -57t-43.5 -42.5t-37 -50t-15.5 -66.5q0 -50 33.5 -76t89.5 -26q57 0 89.5 28t35.5 82l63 -1q-4 -85 -56 -132.5t-138 -47.5t-137.5 42t-51.5 119zM179 482q0 22 14 37t34 15q21 0 35 -15
t14 -37q0 -23 -14 -37.5t-35 -14.5t-34.5 14.5t-13.5 37.5z" />
    <glyph glyph-name="Agrave" unicode="&#xc0;" horiz-adv-x="718" 
d="M4 0l314 700h83l313 -700h-87l-78 177h-382l-78 -177h-85zM201 254h314l-158 355zM209 886l80 37l120 -136h-75z" />
    <glyph glyph-name="Aacute" unicode="&#xc1;" horiz-adv-x="718" 
d="M4 0l314 700h83l313 -700h-87l-78 177h-382l-78 -177h-85zM201 254h314l-158 355zM306 787l120 136l79 -38l-124 -98h-75z" />
    <glyph glyph-name="Acircumflex" unicode="&#xc2;" horiz-adv-x="718" 
d="M4 0l314 700h83l313 -700h-87l-78 177h-382l-78 -177h-85zM201 254h314l-158 355zM219 789l102 130h76l102 -130h-68l-72 90l-72 -90h-68z" />
    <glyph glyph-name="Atilde" unicode="&#xc3;" horiz-adv-x="718" 
d="M4 0l314 700h83l313 -700h-87l-78 177h-382l-78 -177h-85zM201 254h314l-158 355zM210 805q0 113 83 113q28 0 66 -30t55 -30q43 0 43 52h52q0 -113 -83 -113q-32 0 -68 30t-53 30q-43 0 -43 -52h-52z" />
    <glyph glyph-name="Adieresis" unicode="&#xc4;" horiz-adv-x="718" 
d="M4 0l314 700h83l313 -700h-87l-78 177h-382l-78 -177h-85zM201 254h314l-158 355zM228 857q0 22 14 36.5t34 14.5t34 -14.5t14 -36.5t-14 -37t-34 -15t-34 15t-14 37zM394 857q0 22 14 36.5t34 14.5t34 -14.5t14 -36.5t-14 -37t-34 -15t-34 15t-14 37z" />
    <glyph glyph-name="Aring" unicode="&#xc5;" horiz-adv-x="718" 
d="M4 0l303 675q-30 14 -47.5 42.5t-17.5 61.5q0 47 35 82t83 35q49 0 84 -35t35 -82q0 -34 -18 -62t-48 -43l301 -674h-87l-78 177h-382l-78 -177h-85zM201 254h314l-158 355zM282 779q0 -31 23 -52.5t55 -21.5t55.5 21.5t23.5 52.5q0 30 -23.5 51.5t-55.5 21.5t-55 -21.5
t-23 -51.5z" />
    <glyph glyph-name="AE" unicode="&#xc6;" horiz-adv-x="1027" 
d="M4 0l413 700h539v-77h-395v-231h354v-76h-354v-239h408v-77h-488v190h-281l-111 -190h-85zM240 258h241v371h-25z" />
    <glyph glyph-name="Ccedilla" unicode="&#xc7;" horiz-adv-x="700" 
d="M40 351q0 147 106.5 249t258.5 102q71 0 138 -27t118 -75l-48 -61q-86 88 -207 88q-119 0 -202 -80.5t-83 -195.5t83.5 -195.5t201.5 -80.5t207 84l49 -55q-105 -98 -235 -107l-21 -47q32 -4 51.5 -24t19.5 -52q1 -40 -26.5 -64.5t-70.5 -24.5q-47 0 -81 24l17 43
q25 -20 59 -20q24 0 39 14t14 33q0 17 -13.5 29.5t-36.5 12.5q-20 0 -33 -3l33 79q-144 9 -241 110.5t-97 243.5z" />
    <glyph glyph-name="Egrave" unicode="&#xc8;" horiz-adv-x="651" 
d="M106 0v700h475v-77h-395v-230h353v-77h-353v-240h408v-76h-488zM197 886l80 37l120 -136h-75z" />
    <glyph glyph-name="Eacute" unicode="&#xc9;" horiz-adv-x="651" 
d="M106 0v700h475v-77h-395v-230h353v-77h-353v-240h408v-76h-488zM294 787l120 136l79 -38l-124 -98h-75z" />
    <glyph glyph-name="Ecircumflex" unicode="&#xca;" horiz-adv-x="651" 
d="M106 0v700h475v-77h-395v-230h353v-77h-353v-240h408v-76h-488zM207 789l102 130h76l102 -130h-68l-72 90l-72 -90h-68z" />
    <glyph glyph-name="Edieresis" unicode="&#xcb;" horiz-adv-x="651" 
d="M106 0v700h475v-77h-395v-230h353v-77h-353v-240h408v-76h-488zM216 857q0 22 14 36.5t34 14.5t34 -14.5t14 -36.5t-14 -37t-34 -15t-34 15t-14 37zM382 857q0 22 14 36.5t34 14.5t34 -14.5t14 -36.5t-14 -37t-34 -15t-34 15t-14 37z" />
    <glyph glyph-name="Igrave" unicode="&#xcc;" horiz-adv-x="292" 
d="M-4 886l80 37l120 -136h-75zM106 0v700h80v-700h-80z" />
    <glyph glyph-name="Iacute" unicode="&#xcd;" horiz-adv-x="292" 
d="M92 787l120 136l79 -38l-124 -98h-75zM106 0v700h80v-700h-80z" />
    <glyph glyph-name="Icircumflex" unicode="&#xce;" horiz-adv-x="292" 
d="M6 789l102 130h76l102 -130h-68l-72 90l-72 -90h-68zM106 0v700h80v-700h-80z" />
    <glyph glyph-name="Idieresis" unicode="&#xcf;" horiz-adv-x="292" 
d="M15 857q0 22 14 36.5t34 14.5t34 -14.5t14 -36.5t-14 -37t-34 -15t-34 15t-14 37zM106 0v700h80v-700h-80zM181 857q0 22 14 36.5t34 14.5t34 -14.5t14 -36.5t-14 -37t-34 -15t-34 15t-14 37z" />
    <glyph glyph-name="Eth" unicode="&#xd0;" horiz-adv-x="801" 
d="M0 326v52h118v322h283q153 0 256.5 -100.5t103.5 -249.5t-104 -249.5t-259 -100.5h-280v326h-118zM198 76h204q117 0 197.5 78t80.5 195t-81.5 195.5t-199.5 78.5h-201v-245h223v-52h-223v-250z" />
    <glyph glyph-name="Ntilde" unicode="&#xd1;" horiz-adv-x="795" 
d="M106 0v700h83l420 -563v563h79v-700h-82l-420 562v-562h-80zM248 805q0 113 83 113q28 0 66 -30t55 -30q43 0 43 52h52q0 -113 -83 -113q-25 0 -47 15t-40.5 30t-33.5 15q-43 0 -43 -52h-52z" />
    <glyph glyph-name="Ograve" unicode="&#xd2;" horiz-adv-x="813" 
d="M40 350q0 148 106.5 250t260.5 102q153 0 259.5 -102t106.5 -250t-106.5 -251t-259.5 -103q-154 0 -260.5 103t-106.5 251zM121 350q0 -115 84 -196t202 -81q117 0 200.5 81t83.5 196t-83.5 195.5t-200.5 80.5q-118 0 -202 -80.5t-84 -195.5zM254 886l80 37l120 -136h-75
z" />
    <glyph glyph-name="Oacute" unicode="&#xd3;" horiz-adv-x="813" 
d="M40 350q0 148 106.5 250t260.5 102q153 0 259.5 -102t106.5 -250t-106.5 -251t-259.5 -103q-154 0 -260.5 103t-106.5 251zM121 350q0 -115 84 -196t202 -81q117 0 200.5 81t83.5 196t-83.5 195.5t-200.5 80.5q-118 0 -202 -80.5t-84 -195.5zM350 787l120 136l79 -38
l-124 -98h-75z" />
    <glyph glyph-name="Ocircumflex" unicode="&#xd4;" horiz-adv-x="813" 
d="M40 350q0 148 106.5 250t260.5 102q153 0 259.5 -102t106.5 -250t-106.5 -251t-259.5 -103q-154 0 -260.5 103t-106.5 251zM121 350q0 -115 84 -196t202 -81q117 0 200.5 81t83.5 196t-83.5 195.5t-200.5 80.5q-118 0 -202 -80.5t-84 -195.5zM264 789l102 130h76
l102 -130h-68l-72 90l-72 -90h-68z" />
    <glyph glyph-name="Otilde" unicode="&#xd5;" horiz-adv-x="813" 
d="M40 350q0 148 106.5 250t260.5 102q153 0 259.5 -102t106.5 -250t-106.5 -251t-259.5 -103q-154 0 -260.5 103t-106.5 251zM121 350q0 -115 84 -196t202 -81q117 0 200.5 81t83.5 196t-83.5 195.5t-200.5 80.5q-118 0 -202 -80.5t-84 -195.5zM254 805q0 113 83 113
q28 0 66 -30t55 -30q43 0 43 52h52q0 -113 -83 -113q-32 0 -68 30t-53 30q-43 0 -43 -52h-52z" />
    <glyph glyph-name="Odieresis" unicode="&#xd6;" horiz-adv-x="813" 
d="M40 350q0 148 106.5 250t260.5 102q153 0 259.5 -102t106.5 -250t-106.5 -251t-259.5 -103q-154 0 -260.5 103t-106.5 251zM121 350q0 -115 84 -196t202 -81q117 0 200.5 81t83.5 196t-83.5 195.5t-200.5 80.5q-118 0 -202 -80.5t-84 -195.5zM273 857q0 22 14 36.5
t34 14.5t34 -14.5t14 -36.5t-14 -37t-34 -15t-34 15t-14 37zM439 857q0 22 14 36.5t34 14.5t34 -14.5t14 -36.5t-14 -37t-34 -15t-34 15t-14 37z" />
    <glyph glyph-name="multiply" unicode="&#xd7;" horiz-adv-x="491" 
d="M80 196l126 127l-126 127l38 42l128 -129l128 129l38 -42l-126 -127l126 -127l-38 -42l-128 129l-128 -129z" />
    <glyph glyph-name="Oslash" unicode="&#xd8;" horiz-adv-x="813" 
d="M40 350q0 148 106.5 250t260.5 102q32 0 76 -7l39 118h51l-43 -131q108 -36 175.5 -126.5t67.5 -205.5q0 -148 -106.5 -251t-259.5 -103q-49 0 -101 13l-45 -137h-51l51 153q-100 41 -160.5 128.5t-60.5 196.5zM121 350q0 -82 45 -149.5t119 -101.5l174 522q-28 5 -52 5
q-118 0 -202 -80.5t-84 -195.5zM331 83q34 -10 76 -10q117 0 200.5 81t83.5 196q0 88 -51.5 158.5t-134.5 100.5z" />
    <glyph glyph-name="Ugrave" unicode="&#xd9;" horiz-adv-x="768" 
d="M90 288v412h80v-412q0 -101 57.5 -158t157.5 -57t156.5 56.5t56.5 158.5v412h80v-412q0 -137 -78 -214.5t-215 -77.5q-138 0 -216.5 77.5t-78.5 214.5zM235 886l80 37l120 -136h-75z" />
    <glyph glyph-name="Uacute" unicode="&#xda;" horiz-adv-x="768" 
d="M90 288v412h80v-412q0 -101 57.5 -158t157.5 -57t156.5 56.5t56.5 158.5v412h80v-412q0 -137 -78 -214.5t-215 -77.5q-138 0 -216.5 77.5t-78.5 214.5zM331 787l120 136l79 -38l-124 -98h-75z" />
    <glyph glyph-name="Ucircumflex" unicode="&#xdb;" horiz-adv-x="768" 
d="M90 288v412h80v-412q0 -101 57.5 -158t157.5 -57t156.5 56.5t56.5 158.5v412h80v-412q0 -137 -78 -214.5t-215 -77.5q-138 0 -216.5 77.5t-78.5 214.5zM244 789l102 130h76l102 -130h-68l-72 90l-72 -90h-68z" />
    <glyph glyph-name="Udieresis" unicode="&#xdc;" horiz-adv-x="768" 
d="M90 288v412h80v-412q0 -101 57.5 -158t157.5 -57t156.5 56.5t56.5 158.5v412h80v-412q0 -137 -78 -214.5t-215 -77.5q-138 0 -216.5 77.5t-78.5 214.5zM253 857q0 22 14 36.5t34 14.5t34 -14.5t14 -36.5t-14 -37t-34 -15t-34 15t-14 37zM419 857q0 22 14 36.5t34 14.5
t34 -14.5t14 -36.5t-14 -37t-34 -15t-34 15t-14 37z" />
    <glyph glyph-name="Yacute" unicode="&#xdd;" horiz-adv-x="625" 
d="M4 700h83l227 -365l224 365h82l-266 -460v-240h-79v237zM259 787l120 136l79 -38l-124 -98h-75z" />
    <glyph glyph-name="Thorn" unicode="&#xde;" horiz-adv-x="672" 
d="M106 0v700h80v-104h162q145 0 221 -58.5t76 -170.5q0 -116 -76 -177t-221 -61h-162v-129h-80zM186 199h159q218 0 218 166q0 161 -218 161h-159v-327z" />
    <glyph glyph-name="germandbls" unicode="&#xdf;" horiz-adv-x="649" 
d="M90 0v490q0 117 65.5 186.5t176.5 69.5q99 0 160 -52t61 -138q0 -63 -35 -111t-94 -65q77 -13 122 -58t45 -116q0 -92 -69 -149t-184 -57h-53v65h58q77 0 124.5 38.5t47.5 99.5q0 63 -51.5 99.5t-138.5 36.5h-10v64q74 0 118 38.5t44 103.5q0 61 -40 97t-106 36
q-75 0 -119 -50t-44 -133v-495h-78z" />
    <glyph glyph-name="agrave" unicode="&#xe0;" horiz-adv-x="577" 
d="M50 157q0 69 52 109.5t145 41.5h173v31q0 59 -36 91t-105 32q-80 0 -167 -60l-33 57q56 37 103.5 54t111.5 17q97 0 149.5 -48t53.5 -134l1 -348h-76v81q-63 -85 -193 -85q-80 0 -129.5 45.5t-49.5 115.5zM123 160q0 -44 33 -70t88 -26q67 0 114.5 31.5t62.5 86.5v63
h-164q-134 0 -134 -85zM135 713l80 37l120 -136h-75z" />
    <glyph glyph-name="aacute" unicode="&#xe1;" horiz-adv-x="577" 
d="M50 157q0 69 52 109.5t145 41.5h173v31q0 59 -36 91t-105 32q-80 0 -167 -60l-33 57q56 37 103.5 54t111.5 17q97 0 149.5 -48t53.5 -134l1 -348h-76v81q-63 -85 -193 -85q-80 0 -129.5 45.5t-49.5 115.5zM123 160q0 -44 33 -70t88 -26q67 0 114.5 31.5t62.5 86.5v63
h-164q-134 0 -134 -85zM231 614l120 136l79 -38l-124 -98h-75z" />
    <glyph glyph-name="acircumflex" unicode="&#xe2;" horiz-adv-x="577" 
d="M50 157q0 69 52 109.5t145 41.5h173v31q0 59 -36 91t-105 32q-80 0 -167 -60l-33 57q56 37 103.5 54t111.5 17q97 0 149.5 -48t53.5 -134l1 -348h-76v81q-63 -85 -193 -85q-80 0 -129.5 45.5t-49.5 115.5zM123 160q0 -44 33 -70t88 -26q67 0 114.5 31.5t62.5 86.5v63
h-164q-134 0 -134 -85zM144 616l102 130h76l102 -130h-68l-72 90l-72 -90h-68z" />
    <glyph glyph-name="atilde" unicode="&#xe3;" horiz-adv-x="577" 
d="M50 157q0 69 52 109.5t145 41.5h173v31q0 59 -36 91t-105 32q-80 0 -167 -60l-33 57q56 37 103.5 54t111.5 17q97 0 149.5 -48t53.5 -134l1 -348h-76v81q-63 -85 -193 -85q-80 0 -129.5 45.5t-49.5 115.5zM123 160q0 -44 33 -70t88 -26q67 0 114.5 31.5t62.5 86.5v63
h-164q-134 0 -134 -85zM135 632q0 113 83 113q28 0 66 -30t55 -30q43 0 43 52h52q0 -113 -83 -113q-31 0 -68 30t-53 30q-43 0 -43 -52h-52z" />
    <glyph glyph-name="adieresis" unicode="&#xe4;" horiz-adv-x="577" 
d="M50 157q0 69 52 109.5t145 41.5h173v31q0 59 -36 91t-105 32q-80 0 -167 -60l-33 57q56 37 103.5 54t111.5 17q97 0 149.5 -48t53.5 -134l1 -348h-76v81q-63 -85 -193 -85q-80 0 -129.5 45.5t-49.5 115.5zM123 160q0 -44 33 -70t88 -26q67 0 114.5 31.5t62.5 86.5v63
h-164q-134 0 -134 -85zM153 684q0 22 14 36.5t34 14.5t34 -14.5t14 -36.5t-14 -37t-34 -15t-34 15t-14 37zM319 684q0 22 14 36.5t34 14.5t34 -14.5t14 -36.5t-14 -37t-34 -15t-34 15t-14 37z" />
    <glyph glyph-name="aring" unicode="&#xe5;" horiz-adv-x="577" 
d="M50 157q0 69 52 109.5t145 41.5h173v31q0 59 -36 91t-105 32q-80 0 -167 -60l-33 57q56 37 103.5 54t111.5 17q97 0 149.5 -48t53.5 -134l1 -348h-76v81q-63 -85 -193 -85q-80 0 -129.5 45.5t-49.5 115.5zM123 160q0 -44 33 -70t88 -26q67 0 114.5 31.5t62.5 86.5v63
h-164q-134 0 -134 -85zM169 679q0 46 34 79.5t81 33.5t81.5 -33.5t34.5 -79.5t-34.5 -80t-81.5 -34t-81 33.5t-34 80.5zM207 679q0 -30 22.5 -51.5t54.5 -21.5t55 21.5t23 51.5q0 29 -23 50.5t-55 21.5q-31 0 -54 -21.5t-23 -50.5z" />
    <glyph glyph-name="ae" unicode="&#xe6;" horiz-adv-x="979" 
d="M50 153q0 69 52.5 106.5t145.5 37.5h174v42q-1 59 -37 91t-106 32q-86 0 -178 -60l-22 59q109 69 215 69q143 0 189 -100q71 100 203 100q117 0 187 -78.5t68 -204.5h-440q6 -83 58.5 -132.5t133.5 -49.5q100 0 163 66l43 -46q-80 -88 -211 -88q-78 0 -138 36.5
t-90 101.5q-64 -139 -231 -139q-81 0 -130 44t-49 113zM123 160q0 -47 33.5 -75.5t88.5 -28.5q137 0 189 135l10 -13q-6 26 -8 40l-13 3v29h-161q-66 0 -102.5 -23.5t-36.5 -66.5zM501 294h362q-5 77 -52.5 125.5t-123.5 48.5t-127 -48t-59 -126z" />
    <glyph glyph-name="ccedilla" unicode="&#xe7;" horiz-adv-x="561" 
d="M42 263q0 117 73.5 191.5t187.5 74.5q127 1 203 -78l-43 -55q-64 61 -157 61q-82 0 -134.5 -54t-52.5 -140t52.5 -140.5t134.5 -54.5q106 0 163 68l45 -48q-67 -81 -186 -90l-21 -48q32 -4 51.5 -24t19.5 -52q1 -40 -26.5 -64.5t-70.5 -24.5q-47 0 -81 24l17 43
q25 -20 59 -20q24 0 39 14t14 33q0 17 -13.5 29.5t-36.5 12.5q-19 0 -33 -3l33 80q-106 8 -171.5 81t-65.5 184z" />
    <glyph glyph-name="egrave" unicode="&#xe8;" horiz-adv-x="588" 
d="M42 263q0 118 73 192t188 74q125 1 188.5 -79t57.5 -217h-430q10 -77 62 -122.5t129 -45.5q100 0 163 66l43 -46q-79 -88 -212 -88q-116 0 -189 74t-73 192zM119 297h360q-4 76 -51.5 120.5t-124.5 44.5q-75 0 -125 -45t-59 -120zM148 713l80 37l120 -136h-75z" />
    <glyph glyph-name="eacute" unicode="&#xe9;" horiz-adv-x="588" 
d="M42 263q0 118 73 192t188 74q125 1 188.5 -79t57.5 -217h-430q10 -77 62 -122.5t129 -45.5q100 0 163 66l43 -46q-79 -88 -212 -88q-116 0 -189 74t-73 192zM119 297h360q-4 76 -51.5 120.5t-124.5 44.5q-75 0 -125 -45t-59 -120zM244 614l120 136l79 -38l-124 -98h-75z
" />
    <glyph glyph-name="ecircumflex" unicode="&#xea;" horiz-adv-x="588" 
d="M42 263q0 118 73 192t188 74q125 1 188.5 -79t57.5 -217h-430q10 -77 62 -122.5t129 -45.5q100 0 163 66l43 -46q-79 -88 -212 -88q-116 0 -189 74t-73 192zM119 297h360q-4 76 -51.5 120.5t-124.5 44.5q-75 0 -125 -45t-59 -120zM157 616l102 130h76l102 -130h-68
l-72 90l-72 -90h-68z" />
    <glyph glyph-name="edieresis" unicode="&#xeb;" horiz-adv-x="588" 
d="M42 263q0 118 73 192t188 74q125 1 188.5 -79t57.5 -217h-430q10 -77 62 -122.5t129 -45.5q100 0 163 66l43 -46q-79 -88 -212 -88q-116 0 -189 74t-73 192zM119 297h360q-4 76 -51.5 120.5t-124.5 44.5q-75 0 -125 -45t-59 -120zM166 684q0 22 14 36.5t34 14.5t34 -14.5
t14 -36.5t-14 -37t-34 -15t-34 15t-14 37zM332 684q0 22 14 36.5t34 14.5t34 -14.5t14 -36.5t-14 -37t-34 -15t-34 15t-14 37z" />
    <glyph glyph-name="igrave" unicode="&#xec;" horiz-adv-x="267" 
d="M-16 713l80 37l120 -136h-75zM95 0v527h77v-527h-77z" />
    <glyph glyph-name="iacute" unicode="&#xed;" horiz-adv-x="267" 
d="M80 614l120 136l79 -38l-124 -98h-75zM95 0v527h77v-527h-77z" />
    <glyph glyph-name="icircumflex" unicode="&#xee;" horiz-adv-x="267" 
d="M-7 616l102 130h76l102 -130h-68l-72 90l-72 -90h-68zM95 0v527h77v-527h-77z" />
    <glyph glyph-name="idieresis" unicode="&#xef;" horiz-adv-x="267" 
d="M2 684q0 22 14 36.5t34 14.5t34 -14.5t14 -36.5t-14 -37t-34 -15t-34 15t-14 37zM95 0v527h77v-527h-77zM168 684q0 22 14 36.5t34 14.5t34 -14.5t14 -36.5t-14 -37t-34 -15t-34 15t-14 37z" />
    <glyph glyph-name="eth" unicode="&#xf0;" horiz-adv-x="581" 
d="M46 224q0 99 61.5 158t165.5 59q62 0 113 -26t75 -70q-38 130 -159 243l-146 -47l-13 45l117 38q-62 49 -124 80l51 41q82 -41 147 -97l126 41l14 -46l-99 -32q79 -78 122 -171t43 -188q0 -116 -70 -186t-188 -70q-107 0 -171.5 62t-64.5 166zM121 229q0 -73 45.5 -116
t121.5 -43q77 0 123.5 41.5t46.5 111.5q0 71 -46.5 114t-123.5 43q-76 0 -121.5 -41t-45.5 -110z" />
    <glyph glyph-name="ntilde" unicode="&#xf1;" horiz-adv-x="656" 
d="M95 0v527h78v-116q54 117 204 119q94 0 147 -54.5t53 -150.5v-325h-78v304q0 70 -39.5 109t-109.5 39q-77 -1 -123.5 -47t-53.5 -122v-283h-78zM191 632q0 113 83 113q28 0 66 -30t55 -30q43 0 43 52h52q0 -113 -83 -113q-31 0 -68 30t-53 30q-43 0 -43 -52h-52z" />
    <glyph glyph-name="ograve" unicode="&#xf2;" horiz-adv-x="618" 
d="M42 264q0 117 75 191t192 74t192 -74t75 -191q0 -118 -75 -192.5t-192 -74.5t-192 74.5t-75 192.5zM120 263q0 -87 53 -141.5t136 -54.5t136 54.5t53 141.5q0 86 -53 140.5t-136 54.5t-136 -54.5t-53 -140.5zM159 713l80 37l120 -136h-75z" />
    <glyph glyph-name="oacute" unicode="&#xf3;" horiz-adv-x="618" 
d="M42 264q0 117 75 191t192 74t192 -74t75 -191q0 -118 -75 -192.5t-192 -74.5t-192 74.5t-75 192.5zM120 263q0 -87 53 -141.5t136 -54.5t136 54.5t53 141.5q0 86 -53 140.5t-136 54.5t-136 -54.5t-53 -140.5zM256 614l120 136l79 -38l-124 -98h-75z" />
    <glyph glyph-name="ocircumflex" unicode="&#xf4;" horiz-adv-x="618" 
d="M42 264q0 117 75 191t192 74t192 -74t75 -191q0 -118 -75 -192.5t-192 -74.5t-192 74.5t-75 192.5zM120 263q0 -87 53 -141.5t136 -54.5t136 54.5t53 141.5q0 86 -53 140.5t-136 54.5t-136 -54.5t-53 -140.5zM169 616l102 130h76l102 -130h-68l-72 90l-72 -90h-68z" />
    <glyph glyph-name="otilde" unicode="&#xf5;" horiz-adv-x="618" 
d="M42 264q0 117 75 191t192 74t192 -74t75 -191q0 -118 -75 -192.5t-192 -74.5t-192 74.5t-75 192.5zM120 263q0 -87 53 -141.5t136 -54.5t136 54.5t53 141.5q0 86 -53 140.5t-136 54.5t-136 -54.5t-53 -140.5zM160 632q0 113 83 113q28 0 66 -30t55 -30q43 0 43 52h52
q0 -113 -83 -113q-32 0 -68 30t-53 30q-43 0 -43 -52h-52z" />
    <glyph glyph-name="odieresis" unicode="&#xf6;" horiz-adv-x="618" 
d="M42 264q0 117 75 191t192 74t192 -74t75 -191q0 -118 -75 -192.5t-192 -74.5t-192 74.5t-75 192.5zM120 263q0 -87 53 -141.5t136 -54.5t136 54.5t53 141.5q0 86 -53 140.5t-136 54.5t-136 -54.5t-53 -140.5zM178 684q0 22 14 36.5t34 14.5t34 -14.5t14 -36.5t-14 -37
t-34 -15t-34 15t-14 37zM344 684q0 22 14 36.5t34 14.5t34 -14.5t14 -36.5t-14 -37t-34 -15t-34 15t-14 37z" />
    <glyph glyph-name="divide" unicode="&#xf7;" horiz-adv-x="491" 
d="M37 294v58h417v-58h-417zM196 153q0 22 14 37t34 15t34 -15t14 -37t-14 -36.5t-34 -14.5t-34 14.5t-14 36.5zM196 507q0 22 14 36.5t34 14.5t34 -14.5t14 -36.5t-14 -37t-34 -15t-34 15t-14 37z" />
    <glyph glyph-name="oslash" unicode="&#xf8;" horiz-adv-x="618" 
d="M42 264q0 117 75 191t192 74q32 0 64 -6l44 138h39l-47 -148q77 -27 122 -93t45 -156q0 -118 -75 -192.5t-192 -74.5q-33 0 -64 6l-48 -151h-40l52 162q-77 27 -122 93.5t-45 156.5zM116 263q0 -66 30.5 -115t82.5 -71l123 383q-17 4 -43 4q-85 0 -139 -56t-54 -145z
M265 65q19 -4 44 -4q85 0 139 56t54 146q0 66 -30.5 115t-83.5 71z" />
    <glyph glyph-name="ugrave" unicode="&#xf9;" horiz-adv-x="647" 
d="M77 202v325h78v-304q0 -70 39 -109t107 -39q81 1 127 54.5t46 138.5v259h78v-527h-78v119q-51 -120 -200 -122q-92 0 -144.5 55t-52.5 150zM171 713l80 37l120 -136h-75z" />
    <glyph glyph-name="uacute" unicode="&#xfa;" horiz-adv-x="647" 
d="M77 202v325h78v-304q0 -70 39 -109t107 -39q81 1 127 54.5t46 138.5v259h78v-527h-78v119q-51 -120 -200 -122q-92 0 -144.5 55t-52.5 150zM267 614l120 136l79 -38l-124 -98h-75z" />
    <glyph glyph-name="ucircumflex" unicode="&#xfb;" horiz-adv-x="647" 
d="M77 202v325h78v-304q0 -70 39 -109t107 -39q81 1 127 54.5t46 138.5v259h78v-527h-78v119q-51 -120 -200 -122q-92 0 -144.5 55t-52.5 150zM180 616l102 130h76l102 -130h-68l-72 90l-72 -90h-68z" />
    <glyph glyph-name="udieresis" unicode="&#xfc;" horiz-adv-x="647" 
d="M77 202v325h78v-304q0 -70 39 -109t107 -39q81 1 127 54.5t46 138.5v259h78v-527h-78v119q-51 -120 -200 -122q-92 0 -144.5 55t-52.5 150zM189 684q0 22 14 36.5t34 14.5t34 -14.5t14 -36.5t-14 -37t-34 -15t-34 15t-14 37zM355 684q0 22 14 36.5t34 14.5t34 -14.5
t14 -36.5t-14 -37t-34 -15t-34 15t-14 37z" />
    <glyph glyph-name="yacute" unicode="&#xfd;" horiz-adv-x="502" 
d="M-6 -159l33 65q35 -25 74 -25q64 0 96 74l22 49l-218 523h82l175 -435l167 435h80l-242 -602q-50 -123 -158 -123q-63 0 -111 39zM200 614l120 136l79 -38l-124 -98h-75z" />
    <glyph glyph-name="thorn" unicode="&#xfe;" horiz-adv-x="676" 
d="M100 -194v936h78v-329q62 117 203 117q112 0 182.5 -75t70.5 -193q0 -117 -69.5 -191t-181.5 -74q-143 0 -205 116v-307h-78zM178 264q0 -86 53 -141t136 -55q82 0 135 55t53 141q0 85 -53 140.5t-135 55.5q-83 0 -136 -55t-53 -141z" />
    <glyph glyph-name="ydieresis" unicode="&#xff;" horiz-adv-x="502" 
d="M-6 -159l33 65q35 -25 74 -25q64 0 96 74l22 49l-218 523h82l175 -435l167 435h80l-242 -602q-50 -123 -158 -123q-63 0 -111 39zM123 684q0 22 14 36.5t34 14.5t34 -14.5t14 -36.5t-14 -37t-34 -15t-34 15t-14 37zM289 684q0 22 14 36.5t34 14.5t34 -14.5t14 -36.5
t-14 -37t-34 -15t-34 15t-14 37z" />
    <glyph glyph-name="Amacron" unicode="&#x100;" horiz-adv-x="718" 
d="M4 0l314 700h83l313 -700h-87l-78 177h-382l-78 -177h-85zM201 254h314l-158 355zM239 819v62h241v-62h-241z" />
    <glyph glyph-name="amacron" unicode="&#x101;" horiz-adv-x="577" 
d="M50 157q0 69 52 109.5t145 41.5h173v31q0 59 -36 91t-105 32q-80 0 -167 -60l-33 57q56 37 103.5 54t111.5 17q97 0 149.5 -48t53.5 -134l1 -348h-76v81q-63 -85 -193 -85q-80 0 -129.5 45.5t-49.5 115.5zM123 160q0 -44 33 -70t88 -26q67 0 114.5 31.5t62.5 86.5v63
h-164q-134 0 -134 -85zM164 646v62h241v-62h-241z" />
    <glyph glyph-name="Abreve" unicode="&#x102;" horiz-adv-x="718" 
d="M4 0l314 700h83l313 -700h-87l-78 177h-382l-78 -177h-85zM201 254h314l-158 355zM232 913h55q2 -31 22 -51.5t50 -20.5t50 20.5t22 51.5h55q-2 -57 -38 -93t-89 -36t-89 36t-38 93z" />
    <glyph glyph-name="abreve" unicode="&#x103;" horiz-adv-x="577" 
d="M50 157q0 69 52 109.5t145 41.5h173v31q0 59 -36 91t-105 32q-80 0 -167 -60l-33 57q56 37 103.5 54t111.5 17q97 0 149.5 -48t53.5 -134l1 -348h-76v81q-63 -85 -193 -85q-80 0 -129.5 45.5t-49.5 115.5zM123 160q0 -44 33 -70t88 -26q67 0 114.5 31.5t62.5 86.5v63
h-164q-134 0 -134 -85zM157 740h55q2 -31 22 -51.5t50 -20.5t50 20.5t22 51.5h55q-2 -57 -38 -93t-89 -36t-89 36t-38 93z" />
    <glyph glyph-name="Aogonek" unicode="&#x104;" horiz-adv-x="718" 
d="M5 0l313 700h83l313 -700h-21q-53 -73 -53 -114q0 -18 10 -28t26 -10q25 0 53 33l25 -30q-33 -51 -86 -51q-31 0 -52.5 19.5t-21.5 54.5q0 47 55 126h-21l-80 177h-380l-79 -177h-84zM197 253h322l-161 357z" />
    <glyph glyph-name="aogonek" unicode="&#x105;" horiz-adv-x="581" 
d="M50 156q0 70 52 110.5t145 41.5h175v31q-1 59 -37 91t-105 32q-81 0 -168 -60l-33 57q56 37 104 54t113 17q96 0 149 -48.5t54 -133.5v-348h-21q-65 -72 -65 -114q0 -18 10 -28t25 -10q24 0 54 33l25 -30q-35 -51 -87 -51q-31 0 -52 19t-21 55q0 53 69 128h-14v78
q-62 -84 -190 -84q-83 0 -132.5 45.5t-49.5 114.5zM123 159q0 -42 32.5 -68.5t91.5 -26.5q62 0 112 32t63 83v66h-164q-135 0 -135 -86z" />
    <glyph glyph-name="Cacute" unicode="&#x106;" horiz-adv-x="700" 
d="M40 351q0 147 106.5 249t258.5 102q71 0 138 -27t118 -75l-48 -61q-86 88 -207 88q-119 0 -202 -80.5t-83 -195.5t83.5 -195.5t201.5 -80.5t207 84l49 -55q-115 -108 -260 -108q-151 0 -256.5 103t-105.5 252zM311 787l120 136l79 -38l-124 -98h-75z" />
    <glyph glyph-name="cacute" unicode="&#x107;" horiz-adv-x="561" 
d="M42 263q0 117 73.5 191.5t187.5 74.5q127 1 203 -78l-43 -55q-64 61 -157 61q-82 0 -134.5 -54t-52.5 -140t52.5 -140.5t134.5 -54.5q106 0 163 68l45 -48q-75 -91 -211 -91q-115 0 -188 74t-73 192zM231 614l120 136l79 -38l-124 -98h-75z" />
    <glyph glyph-name="Ccaron" unicode="&#x10c;" horiz-adv-x="700" 
d="M40 351q0 147 106.5 249t258.5 102q71 0 138 -27t118 -75l-48 -61q-86 88 -207 88q-119 0 -202 -80.5t-83 -195.5t83.5 -195.5t201.5 -80.5t207 84l49 -55q-115 -108 -260 -108q-151 0 -256.5 103t-105.5 252zM218 919h73l72 -94l72 94h73l-104 -137h-82z" />
    <glyph glyph-name="ccaron" unicode="&#x10d;" horiz-adv-x="561" 
d="M42 263q0 117 73.5 191.5t187.5 74.5q127 1 203 -78l-43 -55q-64 61 -157 61q-82 0 -134.5 -54t-52.5 -140t52.5 -140.5t134.5 -54.5q106 0 163 68l45 -48q-75 -91 -211 -91q-115 0 -188 74t-73 192zM138 746h73l72 -94l72 94h73l-104 -137h-82z" />
    <glyph glyph-name="Dcaron" unicode="&#x10e;" horiz-adv-x="789" 
d="M106 0v700h283q153 0 256.5 -100.5t103.5 -249.5t-104 -249.5t-259 -100.5h-280zM186 76h204q118 0 198 78t80 195t-81.5 195.5t-199.5 78.5h-201v-547zM226 919h73l72 -94l72 94h73l-104 -137h-82z" />
    <glyph glyph-name="dcaron" unicode="&#x10f;" horiz-adv-x="698" 
d="M42 264q0 118 70.5 192.5t182.5 74.5q70 0 123.5 -30.5t82.5 -87.5v329h78v-742h-78v113q-62 -117 -205 -117q-112 0 -183 75t-71 193zM120 262q0 -86 53.5 -141t137.5 -55q83 0 136.5 55t53.5 141t-53.5 142t-136.5 56q-84 0 -137.5 -56t-53.5 -142zM636 523l33 73
q-22 13 -22 43q0 22 13.5 36t33.5 14t34 -14t14 -37q0 -20 -15 -43l-47 -72h-44z" />
    <glyph glyph-name="Dcroat" unicode="&#x110;" horiz-adv-x="789" 
d="M106 0v700h283q153 0 256.5 -100.5t103.5 -249.5t-104 -249.5t-259 -100.5h-280zM186 76h204q118 0 198 78t80 195t-81.5 195.5t-199.5 78.5h-201v-547zM253 819v62h241v-62h-241z" />
    <glyph glyph-name="dcroat" unicode="&#x111;" horiz-adv-x="674" 
d="M42 264q0 118 70.5 192.5t182.5 74.5q70 0 123.5 -30.5t82.5 -87.5v217h-108v50h108v62h78v-62h71v-50h-71v-630h-78v113q-62 -117 -205 -117q-112 0 -183 75t-71 193zM120 262q0 -86 53.5 -141t137.5 -55q83 0 136.5 55t53.5 141t-53.5 142t-136.5 56q-84 0 -137.5 -56
t-53.5 -142z" />
    <glyph glyph-name="Emacron" unicode="&#x112;" horiz-adv-x="651" 
d="M106 0v700h475v-77h-395v-230h353v-77h-353v-240h408v-76h-488zM227 819v62h241v-62h-241z" />
    <glyph glyph-name="emacron" unicode="&#x113;" horiz-adv-x="588" 
d="M42 263q0 118 73 192t188 74q125 1 188.5 -79t57.5 -217h-430q10 -77 62 -122.5t129 -45.5q100 0 163 66l43 -46q-79 -88 -212 -88q-116 0 -189 74t-73 192zM119 297h360q-4 76 -51.5 120.5t-124.5 44.5q-75 0 -125 -45t-59 -120zM177 646v62h241v-62h-241z" />
    <glyph glyph-name="Edotaccent" unicode="&#x116;" horiz-adv-x="651" 
d="M106 0v700h475v-77h-395v-230h353v-77h-353v-240h408v-76h-488zM296 851q0 23 14.5 38.5t36.5 15.5t36.5 -15.5t14.5 -38.5t-14.5 -38.5t-36.5 -15.5t-36.5 15.5t-14.5 38.5z" />
    <glyph glyph-name="edotaccent" unicode="&#x117;" horiz-adv-x="588" 
d="M42 263q0 118 73 192t188 74q125 1 188.5 -79t57.5 -217h-430q10 -77 62 -122.5t129 -45.5q100 0 163 66l43 -46q-79 -88 -212 -88q-116 0 -189 74t-73 192zM119 297h360q-4 76 -51.5 120.5t-124.5 44.5q-75 0 -125 -45t-59 -120zM246 678q0 23 14.5 38.5t36.5 15.5
t36.5 -15.5t14.5 -38.5t-14.5 -38.5t-36.5 -15.5t-36.5 15.5t-14.5 38.5z" />
    <glyph glyph-name="Eogonek" unicode="&#x118;" horiz-adv-x="657" 
d="M106 0v700h481v-71h-401v-237h359v-70h-359v-252h414v-70h-63q-54 -74 -54 -114q0 -18 10.5 -28t25.5 -10q25 0 53 33l26 -30q-35 -51 -87 -51q-31 0 -52 19t-21 55q0 48 55 126h-387z" />
    <glyph glyph-name="eogonek" unicode="&#x119;" horiz-adv-x="588" 
d="M42 265q0 114 70.5 187.5t190.5 76.5q122 2 187 -78t59 -218h-429q8 -76 59.5 -122.5t130.5 -46.5q99 0 163 67l43 -46q-101 -125 -101 -198q0 -39 35 -39q26 0 53 33l25 -30q-36 -51 -86 -51q-30 0 -51.5 19t-21.5 56q0 70 68 161q-61 -39 -135 -39q-114 0 -187 74.5
t-73 193.5zM119 297h360q-4 74 -51.5 119.5t-123.5 45.5t-127.5 -46t-57.5 -119z" />
    <glyph glyph-name="Ecaron" unicode="&#x11a;" horiz-adv-x="651" 
d="M106 0v700h475v-77h-395v-230h353v-77h-353v-240h408v-76h-488zM200 919h73l72 -94l72 94h73l-104 -137h-82z" />
    <glyph glyph-name="ecaron" unicode="&#x11b;" horiz-adv-x="588" 
d="M42 263q0 118 73 192t188 74q125 1 188.5 -79t57.5 -217h-430q10 -77 62 -122.5t129 -45.5q100 0 163 66l43 -46q-79 -88 -212 -88q-116 0 -189 74t-73 192zM119 297h360q-4 76 -51.5 120.5t-124.5 44.5q-75 0 -125 -45t-59 -120zM150 746h73l72 -94l72 94h73l-104 -137
h-82z" />
    <glyph glyph-name="Gbreve" unicode="&#x11e;" horiz-adv-x="753" 
d="M40 350q0 148 107 250t262 102q149 0 258 -96l-46 -60q-91 81 -212 81q-120 0 -204 -81t-84 -196q0 -116 84.5 -197t204.5 -81q98 0 184 59v211h71v-254q-53 -42 -122 -67t-138 -25q-152 0 -258.5 103t-106.5 251zM257 913h55q2 -31 22 -51.5t50 -20.5t50 20.5t22 51.5
h55q-2 -57 -38 -93t-89 -36t-89 36t-38 93z" />
    <glyph glyph-name="gbreve" unicode="&#x11f;" horiz-adv-x="636" 
d="M42 278q0 110 66 180.5t172 71.5q136 0 196 -110v107h78v-472q0 -115 -72.5 -183t-192.5 -68q-117 1 -216 76l36 60q79 -66 177 -67q86 0 138 49t52 131v80q-58 -110 -194 -110q-106 0 -173 71t-67 184zM115 275q1 -81 51.5 -133.5t129.5 -52.5t129.5 52.5t50.5 133.5
q0 82 -50.5 134.5t-129.5 52.5t-129.5 -52.5t-51.5 -134.5zM191 740h55q2 -31 22 -51.5t50 -20.5t50 20.5t22 51.5h55q-2 -57 -38 -93t-89 -36t-89 36t-38 93z" />
    <glyph glyph-name="Gcommaaccent" unicode="&#x122;" horiz-adv-x="753" 
d="M40 350q0 148 107 250t262 102q149 0 258 -96l-46 -60q-91 81 -212 81q-120 0 -204 -81t-84 -196q0 -116 84.5 -197t204.5 -81q98 0 184 59v211h71v-254q-53 -42 -122 -67t-138 -25q-152 0 -258.5 103t-106.5 251zM331 -221l33 73q-22 13 -22 43q0 22 13.5 36t33.5 14
t34 -13.5t14 -36.5q0 -21 -15 -44l-47 -72h-44z" />
    <glyph glyph-name="gcommaaccent" unicode="&#x123;" horiz-adv-x="636" 
d="M42 278q0 110 66 180.5t172 71.5q136 0 196 -110v107h78v-472q0 -115 -72.5 -183t-192.5 -68q-117 1 -216 76l36 60q79 -66 177 -67q86 0 138 49t52 131v80q-58 -110 -194 -110q-106 0 -173 71t-67 184zM115 275q1 -81 51.5 -133.5t129.5 -52.5t129.5 52.5t50.5 133.5
q0 82 -50.5 134.5t-129.5 52.5t-129.5 -52.5t-51.5 -134.5zM265 632q0 21 15 44l47 72h44l-33 -73q22 -13 22 -43q0 -22 -13.5 -36t-33.5 -14t-34 13.5t-14 36.5z" />
    <glyph glyph-name="hbar" unicode="&#x127;" horiz-adv-x="748" 
d="M13 598v52h87v92h78v-92h156v-52h-156v-189q52 119 205 121q94 0 147 -54.5t53 -150.5v-325h-78v304q0 70 -39.5 109t-109.5 39q-83 -1 -130.5 -54t-47.5 -139v-259h-78v598h-87z" />
    <glyph glyph-name="Itilde" unicode="&#x128;" horiz-adv-x="292" 
d="M-3 805q0 113 83 113q28 0 66 -30t55 -30q43 0 43 52h52q0 -113 -83 -113q-31 0 -68 30t-53 30q-43 0 -43 -52h-52zM106 0v700h80v-700h-80z" />
    <glyph glyph-name="itilde" unicode="&#x129;" horiz-adv-x="267" 
d="M-16 632q0 113 83 113q28 0 66 -30t55 -30q43 0 43 52h52q0 -113 -83 -113q-32 0 -68 30t-53 30q-43 0 -43 -52h-52zM95 0v527h77v-527h-77z" />
    <glyph glyph-name="Imacron" unicode="&#x12a;" horiz-adv-x="292" 
d="M26 819v62h241v-62h-241zM106 0v700h80v-700h-80z" />
    <glyph glyph-name="imacron" unicode="&#x12b;" horiz-adv-x="267" 
d="M13 646v62h241v-62h-241zM95 0v527h77v-527h-77z" />
    <glyph glyph-name="Iogonek" unicode="&#x12e;" horiz-adv-x="292" 
d="M72 -126q0 48 56 127h-22v699h80v-700h-15q-53 -72 -53 -114q0 -18 10 -28t25 -10q26 0 54 33l25 -30q-35 -51 -87 -51q-30 0 -51.5 19.5t-21.5 54.5z" />
    <glyph glyph-name="iogonek" unicode="&#x12f;" horiz-adv-x="253" 
d="M56 -126q0 46 52 126h-19v527h78v-527h-15q-50 -71 -50 -114q0 -18 9.5 -28t25.5 -10q25 0 53 33l26 -30q-35 -51 -87 -51q-31 0 -52 19t-21 55zM76 678q0 23 15 39t36 16q22 0 36.5 -16t14.5 -39q0 -24 -14.5 -39.5t-36.5 -15.5q-21 0 -36 15.5t-15 39.5z" />
    <glyph glyph-name="Idotaccent" unicode="&#x130;" horiz-adv-x="292" 
d="M95 851q0 23 14.5 38.5t36.5 15.5t36.5 -15.5t14.5 -38.5t-14.5 -38.5t-36.5 -15.5t-36.5 15.5t-14.5 38.5zM106 0v700h80v-700h-80z" />
    <glyph glyph-name="dotlessi" unicode="&#x131;" horiz-adv-x="267" 
d="M95 0v527h77v-527h-77z" />
    <glyph glyph-name="IJ" unicode="&#x132;" horiz-adv-x="775" 
d="M106 0v700h80v-700h-80zM292 96l40 64q67 -81 153 -81q58 0 89 34t31 99v411h-250v77h331v-490q0 -102 -53 -158t-147 -56q-116 0 -194 100z" />
    <glyph glyph-name="ij" unicode="&#x133;" horiz-adv-x="534" 
d="M82 678q0 23 14.5 38.5t36.5 15.5t36.5 -15.5t14.5 -38.5t-14.5 -38.5t-36.5 -15.5t-36.5 15.5t-14.5 38.5zM95 0v527h77v-527h-77zM179 -161l28 64q37 -27 76 -27q36 0 56 23.5t20 70.5v557h78v-547q0 -87 -43 -132.5t-108 -44.5q-58 0 -107 36zM345 678q0 23 15.5 39
t37.5 16q23 0 38 -16t15 -39t-15 -39t-38 -16q-22 0 -37.5 16t-15.5 39z" />
    <glyph glyph-name="Jcircumflex" unicode="&#x134;" horiz-adv-x="483" 
d="M0 96l40 64q67 -81 153 -81q58 0 89 34t31 99v411h-250v77h331v-490q0 -102 -53 -158t-147 -56q-116 0 -194 100zM85 789l102 130h76l102 -130h-68l-72 90l-72 -90h-68z" />
    <glyph glyph-name="jcircumflex" unicode="&#x135;" horiz-adv-x="253" 
d="M-92 -160l23 61q35 -26 80 -28q40 -1 60.5 27.5t20.5 83.5v543h78v-553q0 -83 -37.5 -127.5t-106.5 -43.5q-66 1 -118 37zM-12 616l102 130h76l102 -130h-68l-72 90l-72 -90h-68z" />
    <glyph glyph-name="Kcommaaccent" unicode="&#x136;" horiz-adv-x="699" 
d="M106 0v700h80v-403l376 403h95l-277 -304l298 -396h-98l-258 332l-136 -149v-183h-80zM293 -221l33 73q-22 13 -22 43q0 22 13.5 36t33.5 14t34 -13.5t14 -36.5q0 -21 -15 -44l-47 -72h-44z" />
    <glyph glyph-name="kcedilla" unicode="&#x137;" horiz-adv-x="573" 
d="M26 -188l17 42q24 -19 56 -19q26 0 42 15t15 38q-1 20 -14.5 32.5t-35.5 12.5l-31 -1l31 68h-6v742h78v-485l271 270h92l-197 -204l218 -323h-93l-180 266l-111 -115v-151h-23l-21 -46q31 -3 50.5 -23.5t20.5 -49.5q1 -41 -26.5 -67t-73.5 -26q-43 0 -79 24z" />
    <glyph glyph-name="kgreenlandic" unicode="&#x138;" horiz-adv-x="569" 
d="M95 0v527h77v-272l273 272h92l-198 -204l219 -323h-93l-180 266l-113 -116v-150h-77z" />
    <glyph glyph-name="Lacute" unicode="&#x139;" horiz-adv-x="517" 
d="M98 787l120 136l79 -38l-124 -98h-75zM106 0v700h80v-624h307v-76h-387z" />
    <glyph glyph-name="lacute" unicode="&#x13a;" horiz-adv-x="278" 
d="M86 829l120 136l79 -38l-124 -98h-75zM100 0v742h78v-742h-78z" />
    <glyph glyph-name="Lcommaaccent" unicode="&#x13b;" horiz-adv-x="517" 
d="M106 0v700h80v-624h307v-76h-387zM236 -221l33 73q-22 13 -22 43q0 22 13.5 36t33.5 14t34 -13.5t14 -36.5q0 -21 -15 -44l-47 -72h-44z" />
    <glyph glyph-name="lcommaaccent" unicode="&#x13c;" horiz-adv-x="278" 
d="M86 -221l33 73q-22 13 -22 43q0 22 13.5 36t33.5 14t34 -13.5t14 -36.5q0 -21 -15 -44l-47 -72h-44zM100 0v742h78v-742h-78z" />
    <glyph glyph-name="Lcaron" unicode="&#x13d;" horiz-adv-x="517" 
d="M106 0v700h80v-624h307v-76h-387zM371 502l33 73q-22 13 -22 43q0 22 13.5 36t33.5 14t34 -14t14 -37q0 -20 -15 -43l-47 -72h-44z" />
    <glyph glyph-name="lcaron" unicode="&#x13e;" horiz-adv-x="287" 
d="M100 0v742h78v-742h-78zM225 523l33 73q-22 13 -22 43q0 22 13.5 36t33.5 14t34 -14t14 -37q0 -20 -15 -43l-47 -72h-44z" />
    <glyph glyph-name="Ldot" unicode="&#x13f;" horiz-adv-x="517" 
d="M106 0v700h80v-624h307v-76h-387zM339 450q0 22 13.5 36t33.5 14t33.5 -14t13.5 -36t-13.5 -36.5t-33.5 -14.5t-33.5 14.5t-13.5 36.5z" />
    <glyph glyph-name="ldot" unicode="&#x140;" horiz-adv-x="296" 
d="M100 0v742h78v-742h-78zM228 308q0 22 14 36.5t34 14.5t34 -14.5t14 -36.5t-14 -36.5t-34 -14.5t-34 14.5t-14 36.5z" />
    <glyph glyph-name="Lslash" unicode="&#x141;" horiz-adv-x="532" 
d="M17 423l104 31v246h80v-223l168 50l15 -57l-183 -54l-1 -340h308v-76h-387v393l-89 -26z" />
    <glyph glyph-name="lslash" unicode="&#x142;" horiz-adv-x="289" 
d="M-13 435l127 38v269h78v-246l104 31l14 -57l-118 -35v-435h-78v412l-113 -33z" />
    <glyph glyph-name="Nacute" unicode="&#x143;" horiz-adv-x="795" 
d="M106 0v700h83l420 -563v563h79v-700h-82l-420 562v-562h-80zM344 787l120 136l79 -38l-124 -98h-75z" />
    <glyph glyph-name="nacute" unicode="&#x144;" horiz-adv-x="656" 
d="M95 0v527h78v-116q54 117 204 119q94 0 147 -54.5t53 -150.5v-325h-78v304q0 70 -39.5 109t-109.5 39q-77 -1 -123.5 -47t-53.5 -122v-283h-78zM287 614l120 136l79 -38l-124 -98h-75z" />
    <glyph glyph-name="Ncommaaccent" unicode="&#x145;" horiz-adv-x="795" 
d="M106 0v700h83l420 -563v563h79v-700h-82l-420 562v-562h-80zM345 -221l33 73q-22 13 -22 43q0 22 13.5 36t33.5 14t34 -13.5t14 -36.5q0 -21 -15 -44l-47 -72h-44z" />
    <glyph glyph-name="ncommaaccent" unicode="&#x146;" horiz-adv-x="656" 
d="M95 0v527h78v-116q54 117 204 119q94 0 147 -54.5t53 -150.5v-325h-78v304q0 70 -39.5 109t-109.5 39q-77 -1 -123.5 -47t-53.5 -122v-283h-78zM279 -221l33 73q-22 13 -22 43q0 22 13.5 36t33.5 14t34 -13.5t14 -36.5q0 -21 -15 -44l-47 -72h-44z" />
    <glyph glyph-name="Ncaron" unicode="&#x147;" horiz-adv-x="795" 
d="M106 0v700h83l420 -563v563h79v-700h-82l-420 562v-562h-80zM251 919h73l72 -94l72 94h73l-104 -137h-82z" />
    <glyph glyph-name="ncaron" unicode="&#x148;" horiz-adv-x="656" 
d="M95 0v527h78v-116q54 117 204 119q94 0 147 -54.5t53 -150.5v-325h-78v304q0 70 -39.5 109t-109.5 39q-77 -1 -123.5 -47t-53.5 -122v-283h-78zM194 746h73l72 -94l72 94h73l-104 -137h-82z" />
    <glyph glyph-name="Omacron" unicode="&#x14c;" horiz-adv-x="813" 
d="M40 350q0 148 106.5 250t260.5 102q153 0 259.5 -102t106.5 -250t-106.5 -251t-259.5 -103q-154 0 -260.5 103t-106.5 251zM121 350q0 -115 84 -196t202 -81q117 0 200.5 81t83.5 196t-83.5 195.5t-200.5 80.5q-118 0 -202 -80.5t-84 -195.5zM283 819v62h241v-62h-241z
" />
    <glyph glyph-name="omacron" unicode="&#x14d;" horiz-adv-x="618" 
d="M42 264q0 117 75 191t192 74t192 -74t75 -191q0 -118 -75 -192.5t-192 -74.5t-192 74.5t-75 192.5zM120 263q0 -87 53 -141.5t136 -54.5t136 54.5t53 141.5q0 86 -53 140.5t-136 54.5t-136 -54.5t-53 -140.5zM189 646v62h241v-62h-241z" />
    <glyph glyph-name="Ohungarumlaut" unicode="&#x150;" horiz-adv-x="813" 
d="M40 350q0 148 106.5 250t260.5 102q153 0 259.5 -102t106.5 -250t-106.5 -251t-259.5 -103q-154 0 -260.5 103t-106.5 251zM121 350q0 -115 84 -196t202 -81q117 0 200.5 81t83.5 196t-83.5 195.5t-200.5 80.5q-118 0 -202 -80.5t-84 -195.5zM276 785l91 141l66 -34
l-92 -107h-65zM423 785l91 141l66 -34l-92 -107h-65z" />
    <glyph glyph-name="ohungarumlaut" unicode="&#x151;" horiz-adv-x="618" 
d="M42 264q0 117 75 191t192 74t192 -74t75 -191q0 -118 -75 -192.5t-192 -74.5t-192 74.5t-75 192.5zM120 263q0 -87 53 -141.5t136 -54.5t136 54.5t53 141.5q0 86 -53 140.5t-136 54.5t-136 -54.5t-53 -140.5zM181 612l91 141l66 -34l-92 -107h-65zM328 612l91 141l66 -34
l-92 -107h-65z" />
    <glyph glyph-name="OE" unicode="&#x152;" horiz-adv-x="1094" 
d="M40 350q0 146 106.5 248t259.5 102h618v-77h-396v-231h354v-76h-354v-239h409v-77h-631q-153 0 -259.5 101.5t-106.5 248.5zM121 349q0 -115 83 -194t203 -79l142 -1v548h-142q-120 0 -203 -79.5t-83 -194.5z" />
    <glyph glyph-name="oe" unicode="&#x153;" horiz-adv-x="1054" 
d="M42 264q0 117 75 191t192 74q79 0 138 -37t89 -102q30 65 88 102t135 37q117 0 187.5 -78t68.5 -204h-442q6 -83 59 -132.5t134 -49.5q101 0 164 66l43 -46q-80 -88 -212 -88q-79 0 -137.5 37t-87.5 102q-30 -65 -89.5 -102t-137.5 -37q-117 0 -192 74.5t-75 192.5z
M120 263q0 -87 53 -141.5t136 -54.5t136 54.5t53 141.5q0 86 -53 140.5t-136 54.5t-136 -54.5t-53 -140.5zM574 295h363q-5 77 -53 124.5t-125 47.5q-75 0 -126 -47.5t-59 -124.5z" />
    <glyph glyph-name="Racute" unicode="&#x154;" horiz-adv-x="723" 
d="M106 0v700h266q131 0 203.5 -61.5t72.5 -173.5q0 -86 -40.5 -144t-116.5 -83l164 -238h-91l-145 223q-30 -2 -47 -2h-186v-221h-80zM186 298h186q96 0 147.5 42t51.5 123q0 79 -51.5 119.5t-147.5 40.5h-186v-325zM296 787l120 136l79 -38l-124 -98h-75z" />
    <glyph glyph-name="racute" unicode="&#x155;" horiz-adv-x="372" 
d="M95 0v527h78v-117q54 118 189 120v-79q-82 1 -132 -45.5t-57 -125.5v-280h-78zM135 614l120 136l79 -38l-124 -98h-75z" />
    <glyph glyph-name="Rcommaaccent" unicode="&#x156;" horiz-adv-x="723" 
d="M106 0v700h266q131 0 203.5 -61.5t72.5 -173.5q0 -86 -40.5 -144t-116.5 -83l164 -238h-91l-145 223q-30 -2 -47 -2h-186v-221h-80zM186 298h186q96 0 147.5 42t51.5 123q0 79 -51.5 119.5t-147.5 40.5h-186v-325zM307 -221l33 73q-22 13 -22 43q0 22 13.5 36t33.5 14
t34 -13.5t14 -36.5q0 -21 -15 -44l-47 -72h-44z" />
    <glyph glyph-name="rcommaaccent" unicode="&#x157;" horiz-adv-x="372" 
d="M79 -221l33 73q-22 13 -22 43q0 22 13.5 36t33.5 14t34 -13.5t14 -36.5q0 -21 -15 -44l-47 -72h-44zM95 0v527h78v-117q54 118 189 120v-79q-82 1 -132 -45.5t-57 -125.5v-280h-78z" />
    <glyph glyph-name="Rcaron" unicode="&#x158;" horiz-adv-x="723" 
d="M106 0v700h266q131 0 203.5 -61.5t72.5 -173.5q0 -86 -40.5 -144t-116.5 -83l164 -238h-91l-145 223q-30 -2 -47 -2h-186v-221h-80zM186 298h186q96 0 147.5 42t51.5 123q0 79 -51.5 119.5t-147.5 40.5h-186v-325zM203 919h73l72 -94l72 94h73l-104 -137h-82z" />
    <glyph glyph-name="rcaron" unicode="&#x159;" horiz-adv-x="372" 
d="M42 746h73l72 -94l72 94h73l-104 -137h-82zM95 0v527h78v-117q54 118 189 120v-79q-82 1 -132 -45.5t-57 -125.5v-280h-78z" />
    <glyph glyph-name="Sacute" unicode="&#x15a;" horiz-adv-x="611" 
d="M32 104l36 72q48 -47 110.5 -73t122.5 -26q76 0 120 29t44 79q0 37 -21.5 63t-56 40.5t-76.5 27t-84 27t-77 35t-56.5 57t-21.5 87.5q0 82 66.5 131.5t175.5 49.5q125 0 222 -65l-34 -75q-89 59 -193 59q-68 0 -108.5 -24.5t-40.5 -68.5q0 -42 29 -70t73 -41.5t95 -31
t94.5 -36.5t72.5 -60.5t29 -100.5q0 -87 -70 -139.5t-183 -52.5q-75 0 -146 29t-122 78zM253 787l120 136l79 -38l-124 -98h-75z" />
    <glyph glyph-name="sacute" unicode="&#x15b;" horiz-adv-x="453" 
d="M25 71l30 59q33 -31 80.5 -49t94.5 -18q49 0 80.5 19t32.5 56q1 35 -29 56t-73 33.5t-86 27t-73 47.5t-30 85q0 71 52.5 107t130.5 36q98 0 168 -48l-30 -62q-68 43 -143 43q-47 0 -75.5 -17.5t-28.5 -52.5q0 -32 30.5 -51.5t73.5 -31.5t86 -27.5t73.5 -49.5t30.5 -86
q0 -74 -55.5 -112t-137.5 -38q-125 0 -202 74zM177 614l120 136l79 -38l-124 -98h-75z" />
    <glyph glyph-name="Scedilla" unicode="&#x15e;" horiz-adv-x="611" 
d="M32 104l36 72q48 -47 110.5 -73t122.5 -26q76 0 120 29t44 79q0 37 -21.5 63t-56 40.5t-76.5 27t-84 27t-77 35t-56.5 57t-21.5 87.5q0 82 66.5 131.5t175.5 49.5q125 0 222 -65l-34 -75q-89 59 -193 59q-68 0 -108.5 -24.5t-40.5 -68.5q0 -42 29 -70t73 -41.5t95 -31
t94.5 -36.5t72.5 -60.5t29 -100.5q0 -77 -55.5 -127.5t-148.5 -61.5l-22 -50q32 -4 51.5 -24t19.5 -52q1 -40 -26.5 -64.5t-70.5 -24.5q-47 0 -81 24l17 43q25 -20 59 -20q24 0 39 14t14 33q0 17 -13.5 29.5t-36.5 12.5q-19 0 -33 -3l33 79q-75 0 -145.5 29t-121.5 78z" />
    <glyph glyph-name="scedilla" unicode="&#x15f;" horiz-adv-x="453" 
d="M25 71l30 59q33 -31 80.5 -49t94.5 -18q49 0 80.5 19t32.5 56q1 35 -29 56t-73 33.5t-86 27t-73 47.5t-30 85q0 71 52.5 107t130.5 36q98 0 168 -48l-30 -62q-68 43 -143 43q-47 0 -75.5 -17.5t-28.5 -52.5q0 -32 30.5 -51.5t73.5 -31.5t86 -27.5t73.5 -49.5t30.5 -86
q0 -65 -43 -102t-112 -46l-22 -49q32 -4 51.5 -24t19.5 -52q1 -40 -26.5 -64.5t-70.5 -24.5q-47 0 -81 24l17 43q25 -20 59 -20q24 0 39 14t14 33q0 17 -13.5 29.5t-36.5 12.5q-19 0 -33 -3l33 79q-118 5 -190 74z" />
    <glyph glyph-name="Scaron" unicode="&#x160;" horiz-adv-x="611" 
d="M32 104l36 72q48 -47 110.5 -73t122.5 -26q76 0 120 29t44 79q0 37 -21.5 63t-56 40.5t-76.5 27t-84 27t-77 35t-56.5 57t-21.5 87.5q0 82 66.5 131.5t175.5 49.5q125 0 222 -65l-34 -75q-89 59 -193 59q-68 0 -108.5 -24.5t-40.5 -68.5q0 -42 29 -70t73 -41.5t95 -31
t94.5 -36.5t72.5 -60.5t29 -100.5q0 -87 -70 -139.5t-183 -52.5q-75 0 -146 29t-122 78zM160 919h73l72 -94l72 94h73l-104 -137h-82z" />
    <glyph glyph-name="scaron" unicode="&#x161;" horiz-adv-x="453" 
d="M25 71l30 59q33 -31 80.5 -49t94.5 -18q49 0 80.5 19t32.5 56q1 35 -29 56t-73 33.5t-86 27t-73 47.5t-30 85q0 71 52.5 107t130.5 36q98 0 168 -48l-30 -62q-68 43 -143 43q-47 0 -75.5 -17.5t-28.5 -52.5q0 -32 30.5 -51.5t73.5 -31.5t86 -27.5t73.5 -49.5t30.5 -86
q0 -74 -55.5 -112t-137.5 -38q-125 0 -202 74zM83 746h73l72 -94l72 94h73l-104 -137h-82z" />
    <glyph glyph-name="Tcedilla" unicode="&#x162;" horiz-adv-x="558" 
d="M11 623v77h537v-77h-229v-623h-14l-22 -50q32 -4 51.5 -24t19.5 -52q1 -40 -26.5 -64.5t-70.5 -24.5q-47 0 -81 24l17 43q25 -20 59 -20q24 0 39 14t14 33q0 17 -13.5 29.5t-36.5 12.5q-19 0 -33 -3l34 82h-17v623h-228z" />
    <glyph glyph-name="tcedilla" unicode="&#x163;" horiz-adv-x="390" 
d="M38 447v63h76v139h77v-139l167 1v-64h-167v-287q0 -88 70 -88q41 0 84 27l22 -63q-44 -31 -93 -38l-21 -48q32 -4 51.5 -24t19.5 -52q1 -40 -26.5 -64.5t-70.5 -24.5q-47 0 -81 24l17 43q25 -20 59 -20q24 0 39 14t14 33q0 17 -13.5 29.5t-36.5 12.5q-19 0 -33 -3l33 79
q-51 7 -81 44.5t-30 104.5v301h-76z" />
    <glyph glyph-name="Tcaron" unicode="&#x164;" horiz-adv-x="558" 
d="M11 623v77h537v-77h-229v-623h-80v623h-228zM137 919h73l72 -94l72 94h73l-104 -137h-82z" />
    <glyph glyph-name="tcaron" unicode="&#x165;" horiz-adv-x="374" 
d="M38 447v63h76v139h77v-139l167 1v-64h-167v-287q0 -88 70 -88q41 0 84 27l22 -63q-57 -39 -119 -40q-61 0 -97.5 37.5t-36.5 112.5v301h-76zM259 591l33 73q-22 13 -22 43q0 22 13.5 36t33.5 14t34 -14t14 -37q0 -20 -15 -43l-47 -72h-44z" />
    <glyph glyph-name="Umacron" unicode="&#x16a;" horiz-adv-x="768" 
d="M90 288v412h80v-412q0 -101 57.5 -158t157.5 -57t156.5 56.5t56.5 158.5v412h80v-412q0 -137 -78 -214.5t-215 -77.5q-138 0 -216.5 77.5t-78.5 214.5zM264 819v62h241v-62h-241z" />
    <glyph glyph-name="umacron" unicode="&#x16b;" horiz-adv-x="647" 
d="M77 202v325h78v-304q0 -70 39 -109t107 -39q81 1 127 54.5t46 138.5v259h78v-527h-78v119q-51 -120 -200 -122q-92 0 -144.5 55t-52.5 150zM200 646v62h241v-62h-241z" />
    <glyph glyph-name="Uring" unicode="&#x16e;" horiz-adv-x="768" 
d="M90 288v412h80v-412q0 -101 57.5 -158t157.5 -57t156.5 56.5t56.5 158.5v412h80v-412q0 -137 -78 -214.5t-215 -77.5q-138 0 -216.5 77.5t-78.5 214.5zM269 852q0 46 34 79.5t81 33.5t81.5 -33.5t34.5 -79.5t-34.5 -80t-81.5 -34t-81 33.5t-34 80.5zM307 852
q0 -30 22.5 -51.5t54.5 -21.5t55 21.5t23 51.5q0 29 -23 50.5t-55 21.5q-31 0 -54 -21.5t-23 -50.5z" />
    <glyph glyph-name="uring" unicode="&#x16f;" horiz-adv-x="647" 
d="M77 202v325h78v-304q0 -70 39 -109t107 -39q81 1 127 54.5t46 138.5v259h78v-527h-78v119q-51 -120 -200 -122q-92 0 -144.5 55t-52.5 150zM205 679q0 46 34 79.5t81 33.5t81.5 -33.5t34.5 -79.5t-34.5 -80t-81.5 -34t-81 33.5t-34 80.5zM243 679q0 -30 22.5 -51.5
t54.5 -21.5t55 21.5t23 51.5q0 29 -23 50.5t-55 21.5q-31 0 -54 -21.5t-23 -50.5z" />
    <glyph glyph-name="Uhungarumlaut" unicode="&#x170;" horiz-adv-x="768" 
d="M90 288v412h80v-412q0 -101 57.5 -158t157.5 -57t156.5 56.5t56.5 158.5v412h80v-412q0 -137 -78 -214.5t-215 -77.5q-138 0 -216.5 77.5t-78.5 214.5zM256 785l91 141l66 -34l-92 -107h-65zM403 785l91 141l66 -34l-92 -107h-65z" />
    <glyph glyph-name="uhungarumlaut" unicode="&#x171;" horiz-adv-x="647" 
d="M77 202v325h78v-304q0 -70 39 -109t107 -39q81 1 127 54.5t46 138.5v259h78v-527h-78v119q-51 -120 -200 -122q-92 0 -144.5 55t-52.5 150zM193 612l91 141l66 -34l-92 -107h-65zM340 612l91 141l66 -34l-92 -107h-65z" />
    <glyph glyph-name="Uogonek" unicode="&#x172;" horiz-adv-x="769" 
d="M90 288v412h80v-412q0 -101 57.5 -158t157.5 -57t156.5 56.5t56.5 158.5v412h80v-412q0 -111 -51.5 -183.5t-145.5 -96.5q-59 -78 -59 -122q0 -18 10 -28t25 -10q26 0 54 33l26 -30q-36 -51 -87 -51q-31 0 -52 19t-21 55q0 49 53 124q-28 -2 -45 -2q-138 0 -216.5 77.5
t-78.5 214.5z" />
    <glyph glyph-name="uogonek" unicode="&#x173;" horiz-adv-x="645" 
d="M78 202v325h78v-304q0 -70 39.5 -109.5t108.5 -38.5q73 1 119.5 47t53.5 122v283h77v-527h-15q-57 -68 -57 -114q0 -18 9.5 -28t25.5 -10q26 0 54 33l26 -30q-37 -51 -88 -51q-29 0 -50.5 18.5t-21.5 54.5q0 51 58 129h-18v112q-54 -115 -202 -117q-93 0 -145 54.5
t-52 150.5z" />
    <glyph glyph-name="Wcircumflex" unicode="&#x174;" horiz-adv-x="1017" 
d="M6 700h86l192 -607l190 606l80 1l192 -607l190 607h83l-235 -700h-82l-189 590l-191 -590h-82zM333 789l102 130h76l102 -130h-68l-72 90l-72 -90h-68z" />
    <glyph glyph-name="wcircumflex" unicode="&#x175;" horiz-adv-x="864" 
d="M4 527h82l156 -446l153 446h82l155 -446l154 446h81l-195 -527h-81l-155 428l-154 -428h-81zM292 616l102 130h76l102 -130h-68l-72 90l-72 -90h-68z" />
    <glyph glyph-name="Ycircumflex" unicode="&#x176;" horiz-adv-x="625" 
d="M4 700h83l227 -365l224 365h82l-266 -460v-240h-79v237zM172 789l102 130h76l102 -130h-68l-72 90l-72 -90h-68z" />
    <glyph glyph-name="ycircumflex" unicode="&#x177;" horiz-adv-x="502" 
d="M-6 -159l33 65q35 -25 74 -25q64 0 96 74l22 49l-218 523h82l175 -435l167 435h80l-242 -602q-50 -123 -158 -123q-63 0 -111 39zM114 616l102 130h76l102 -130h-68l-72 90l-72 -90h-68z" />
    <glyph glyph-name="Ydieresis" unicode="&#x178;" horiz-adv-x="625" 
d="M4 700h83l227 -365l224 365h82l-266 -460v-240h-79v237zM181 857q0 22 14 36.5t34 14.5t34 -14.5t14 -36.5t-14 -37t-34 -15t-34 15t-14 37zM347 857q0 22 14 36.5t34 14.5t34 -14.5t14 -36.5t-14 -37t-34 -15t-34 15t-14 37z" />
    <glyph glyph-name="Zacute" unicode="&#x179;" horiz-adv-x="660" 
d="M43 0v64l464 559h-451v77h556v-64l-464 -560h469l-1 -76h-573zM282 787l120 136l79 -38l-124 -98h-75z" />
    <glyph glyph-name="zacute" unicode="&#x17a;" horiz-adv-x="526" 
d="M52 0v59l330 399l-321 1v68l415 -1v-59l-330 -399l338 -1v-68zM210 614l120 136l79 -38l-124 -98h-75z" />
    <glyph glyph-name="Zdotaccent" unicode="&#x17b;" horiz-adv-x="660" 
d="M43 0v64l464 559h-451v77h556v-64l-464 -560h469l-1 -76h-573zM284 851q0 23 14.5 38.5t36.5 15.5t36.5 -15.5t14.5 -38.5t-14.5 -38.5t-36.5 -15.5t-36.5 15.5t-14.5 38.5z" />
    <glyph glyph-name="zdotaccent" unicode="&#x17c;" horiz-adv-x="526" 
d="M52 0v59l330 399l-321 1v68l415 -1v-59l-330 -399l338 -1v-68zM212 678q0 23 14.5 38.5t36.5 15.5t36.5 -15.5t14.5 -38.5t-14.5 -38.5t-36.5 -15.5t-36.5 15.5t-14.5 38.5z" />
    <glyph glyph-name="Zcaron" unicode="&#x17d;" horiz-adv-x="660" 
d="M43 0v64l464 559h-451v77h556v-64l-464 -560h469l-1 -76h-573zM189 919h73l72 -94l72 94h73l-104 -137h-82z" />
    <glyph glyph-name="zcaron" unicode="&#x17e;" horiz-adv-x="526" 
d="M52 0v59l330 399l-321 1v68l415 -1v-59l-330 -399l338 -1v-68zM116 746h73l72 -94l72 94h73l-104 -137h-82z" />
    <glyph glyph-name="florin" unicode="&#x192;" horiz-adv-x="348" 
d="M-123 -160l25 61q29 -27 69 -29q39 -1 60.5 26.5t27.5 78.5l52 427h-66l6 59h68l15 126q9 75 56 119.5t116 43.5q66 -2 116 -38l-31 -60q-35 26 -76 28q-42 1 -70.5 -27.5t-34.5 -76.5l-14 -115h151l-7 -59h-151l-54 -438q-10 -77 -50 -121t-107 -43q-58 2 -101 38z" />
    <glyph glyph-name="Scommaaccent" unicode="&#x218;" horiz-adv-x="611" 
d="M32 104l36 72q48 -47 110.5 -73t122.5 -26q76 0 120 29t44 79q0 37 -21.5 63t-56 40.5t-76.5 27t-84 27t-77 35t-56.5 57t-21.5 87.5q0 82 66.5 131.5t175.5 49.5q125 0 222 -65l-34 -75q-89 59 -193 59q-68 0 -108.5 -24.5t-40.5 -68.5q0 -42 29 -70t73 -41.5t95 -31
t94.5 -36.5t72.5 -60.5t29 -100.5q0 -87 -70 -139.5t-183 -52.5q-75 0 -146 29t-122 78zM256 -221l33 73q-22 13 -22 43q0 22 13.5 36t33.5 14t34 -13.5t14 -36.5q0 -21 -15 -44l-47 -72h-44z" />
    <glyph glyph-name="scommaaccent" unicode="&#x219;" horiz-adv-x="453" 
d="M25 71l30 59q33 -31 80.5 -49t94.5 -18q49 0 80.5 19t32.5 56q1 35 -29 56t-73 33.5t-86 27t-73 47.5t-30 85q0 71 52.5 107t130.5 36q98 0 168 -48l-30 -62q-68 43 -143 43q-47 0 -75.5 -17.5t-28.5 -52.5q0 -32 30.5 -51.5t73.5 -31.5t86 -27.5t73.5 -49.5t30.5 -86
q0 -74 -55.5 -112t-137.5 -38q-125 0 -202 74zM172 -221l33 73q-22 13 -22 43q0 22 13.5 36t33.5 14t34 -13.5t14 -36.5q0 -21 -15 -44l-47 -72h-44z" />
    <glyph glyph-name="Tcommaaccent" unicode="&#x21a;" horiz-adv-x="558" 
d="M11 623v77h537v-77h-229v-623h-80v623h-228zM212 -221l33 73q-22 13 -22 43q0 22 13.5 36t33.5 14t34 -13.5t14 -36.5q0 -21 -15 -44l-47 -72h-44z" />
    <glyph glyph-name="tcommaaccent" unicode="&#x21b;" horiz-adv-x="390" 
d="M38 447v63h76v139h77v-139l167 1v-64h-167v-287q0 -88 70 -88q41 0 84 27l22 -63q-57 -39 -119 -40q-61 0 -97.5 37.5t-36.5 112.5v301h-76zM182 -221l33 73q-22 13 -22 43q0 22 13.5 36t33.5 14t34 -13.5t14 -36.5q0 -21 -15 -44l-47 -72h-44z" />
    <glyph glyph-name="dotlessj" unicode="&#x237;" horiz-adv-x="253" 
d="M-92 -160l23 61q35 -26 80 -28q40 -1 60.5 27.5t20.5 83.5v543h78v-553q0 -83 -37.5 -127.5t-106.5 -43.5q-66 1 -118 37z" />
    <glyph glyph-name="circumflex" unicode="&#x2c6;" 
d="M35 618l102 130h76l102 -130h-68l-72 90l-72 -90h-68z" />
    <glyph glyph-name="caron" unicode="&#x2c7;" 
d="M30 748h73l72 -94l72 94h73l-104 -137h-82z" />
    <glyph glyph-name="firsttonechinese" unicode="&#x2c9;" 
d="M55 646v62h241v-62h-241z" />
    <glyph glyph-name="breve" unicode="&#x2d8;" 
d="M48 741h55q2 -31 22 -51.5t50 -20.5t50 20.5t22 51.5h55q-2 -57 -38 -93t-89 -36t-89 36t-38 93z" />
    <glyph glyph-name="dotaccent" unicode="&#x2d9;" 
d="M124 678q0 23 14.5 38.5t36.5 15.5t36.5 -15.5t14.5 -38.5t-14.5 -38.5t-36.5 -15.5t-36.5 15.5t-14.5 38.5z" />
    <glyph glyph-name="ring" unicode="&#x2da;" 
d="M60 679q0 46 34 79.5t81 33.5t81.5 -33.5t34.5 -79.5t-34.5 -80t-81.5 -34t-81 33.5t-34 80.5zM98 679q0 -30 22.5 -51.5t54.5 -21.5t55 21.5t23 51.5q0 29 -23 50.5t-55 21.5q-31 0 -54 -21.5t-23 -50.5z" />
    <glyph glyph-name="ogonek" unicode="&#x2db;" 
d="M96 -126q0 54 60 134h44q-59 -79 -59 -122q0 -18 10 -28t25 -10q26 0 54 33l26 -30q-36 -51 -87 -51q-31 0 -52 19t-21 55z" />
    <glyph glyph-name="tilde" unicode="&#x2dc;" 
d="M26 632q0 113 83 113q28 0 66 -30t55 -30q43 0 43 52h52q0 -113 -83 -113q-32 0 -68 30t-53 30q-43 0 -43 -52h-52z" />
    <glyph glyph-name="hungarumlaut" unicode="&#x2dd;" 
d="M23 614l91 141l66 -34l-92 -107h-65zM170 614l91 141l66 -34l-92 -107h-65z" />
    <glyph glyph-name="commaaccent" unicode="&#x326;" horiz-adv-x="0" 
d="M42 -221l33 73q-22 13 -22 43q0 22 13.5 36t33.5 14t34 -13.5t14 -36.5q0 -21 -15 -44l-47 -72h-44z" />
    <glyph glyph-name="Delta" unicode="&#x394;" horiz-adv-x="718" 
d="M4 0l314 700h83l313 -700h-710zM118 67h479l-240 542z" />
    <glyph glyph-name="pi" unicode="&#x3c0;" horiz-adv-x="722" 
d="M-6 377q-1 63 47.5 106.5t121.5 43.5h551l-1 -64h-160v-463h-67v463h-184l-53 -463h-66l52 463h-64q-49 0 -82 -28.5t-32 -70.5q2 -43 29 -81l-55 -24q-35 53 -37 118z" />
    <glyph glyph-name="Wgrave" unicode="&#x1e80;" horiz-adv-x="1017" 
d="M6 700h86l192 -607l190 606l80 1l192 -607l190 607h83l-235 -700h-82l-189 590l-191 -590h-82zM323 886l80 37l120 -136h-75z" />
    <glyph glyph-name="wgrave" unicode="&#x1e81;" horiz-adv-x="864" 
d="M4 527h82l156 -446l153 446h82l155 -446l154 446h81l-195 -527h-81l-155 428l-154 -428h-81zM283 713l80 37l120 -136h-75z" />
    <glyph glyph-name="Wacute" unicode="&#x1e82;" horiz-adv-x="1017" 
d="M6 700h86l192 -607l190 606l80 1l192 -607l190 607h83l-235 -700h-82l-189 590l-191 -590h-82zM420 787l120 136l79 -38l-124 -98h-75z" />
    <glyph glyph-name="wacute" unicode="&#x1e83;" horiz-adv-x="864" 
d="M4 527h82l156 -446l153 446h82l155 -446l154 446h81l-195 -527h-81l-155 428l-154 -428h-81zM379 614l120 136l79 -38l-124 -98h-75z" />
    <glyph glyph-name="Wdieresis" unicode="&#x1e84;" horiz-adv-x="1017" 
d="M6 700h86l192 -607l190 606l80 1l192 -607l190 607h83l-235 -700h-82l-189 590l-191 -590h-82zM342 857q0 22 14 36.5t34 14.5t34 -14.5t14 -36.5t-14 -37t-34 -15t-34 15t-14 37zM508 857q0 22 14 36.5t34 14.5t34 -14.5t14 -36.5t-14 -37t-34 -15t-34 15t-14 37z" />
    <glyph glyph-name="wdieresis" unicode="&#x1e85;" horiz-adv-x="864" 
d="M4 527h82l156 -446l153 446h82l155 -446l154 446h81l-195 -527h-81l-155 428l-154 -428h-81zM301 684q0 22 14 36.5t34 14.5t34 -14.5t14 -36.5t-14 -37t-34 -15t-34 15t-14 37zM467 684q0 22 14 36.5t34 14.5t34 -14.5t14 -36.5t-14 -37t-34 -15t-34 15t-14 37z" />
    <glyph glyph-name="Ygrave" unicode="&#x1ef2;" horiz-adv-x="625" 
d="M4 700h83l227 -365l224 365h82l-266 -460v-240h-79v237zM163 886l80 37l120 -136h-75z" />
    <glyph glyph-name="ygrave" unicode="&#x1ef3;" horiz-adv-x="502" 
d="M-6 -159l33 65q35 -25 74 -25q64 0 96 74l22 49l-218 523h82l175 -435l167 435h80l-242 -602q-50 -123 -158 -123q-63 0 -111 39zM104 713l80 37l120 -136h-75z" />
    <glyph glyph-name="endash" unicode="&#x2013;" horiz-adv-x="403" 
d="M0 230v59h403v-59h-403z" />
    <glyph glyph-name="emdash" unicode="&#x2014;" horiz-adv-x="718" 
d="M0 230v59h718v-59h-718z" />
    <glyph glyph-name="quoteleft" unicode="&#x2018;" horiz-adv-x="197" 
d="M42 592q0 20 15 42l47 73h44l-33 -73q23 -14 23 -43q0 -22 -14 -36t-34 -14t-34 14t-14 37z" />
    <glyph glyph-name="quoteright" unicode="&#x2019;" horiz-adv-x="197" 
d="M42 534l33 73q-22 13 -22 42q0 22 13.5 36.5t33.5 14.5t34 -14t14 -37q0 -20 -15 -43l-47 -72h-44z" />
    <glyph glyph-name="quotesinglbase" unicode="&#x201a;" horiz-adv-x="197" 
d="M42 -72l33 73q-22 13 -22 43q0 22 13.5 36t33.5 14t34 -14t14 -37q0 -20 -15 -43l-47 -72h-44z" />
    <glyph glyph-name="quotedblleft" unicode="&#x201c;" horiz-adv-x="282" 
d="M42 592q0 20 15 43l47 72h44l-33 -73q22 -13 22 -43q0 -22 -13.5 -36t-33.5 -14t-34 14t-14 37zM168 592q0 20 15 43l47 72h44l-33 -73q22 -13 22 -43q0 -22 -13.5 -36t-33.5 -14t-34 14t-14 37z" />
    <glyph glyph-name="quotedblright" unicode="&#x201d;" horiz-adv-x="305" 
d="M42 534l33 73q-22 13 -22 43q0 22 13.5 36t33.5 14t34 -14t14 -37q0 -20 -15 -43l-47 -72h-44zM168 534l33 73q-22 13 -22 43q0 22 13.5 36t33.5 14t34 -14t14 -37q0 -20 -15 -43l-47 -72h-44z" />
    <glyph glyph-name="quotedblbase" unicode="&#x201e;" horiz-adv-x="323" 
d="M42 -72l33 73q-22 13 -22 43q0 22 13.5 36t33.5 14t34 -14t14 -37q0 -20 -15 -43l-47 -72h-44zM168 -72l33 73q-22 13 -22 43q0 22 13.5 36t33.5 14t34 -14t14 -37q0 -20 -15 -43l-47 -72h-44z" />
    <glyph glyph-name="dagger" unicode="&#x2020;" horiz-adv-x="514" 
d="M13 401v77h206v221h74v-221h208v-77h-208v-592h-74v592h-206z" />
    <glyph glyph-name="daggerdbl" unicode="&#x2021;" horiz-adv-x="514" 
d="M13 57v76h206v268h-206v77h206v221h74v-221h208v-77h-208v-268h208v-76h-208v-248h-74v248h-206z" />
    <glyph glyph-name="bullet" unicode="&#x2022;" horiz-adv-x="248" 
d="M51 268q0 33 21 55t52 22t52 -22t21 -55q0 -34 -21 -56.5t-52 -22.5t-52 22.5t-21 56.5z" />
    <glyph glyph-name="ellipsis" unicode="&#x2026;" horiz-adv-x="562" 
d="M51 43q0 22 13.5 36t33.5 14t33.5 -14t13.5 -36t-13.5 -36.5t-33.5 -14.5t-33.5 14.5t-13.5 36.5zM234 43q0 22 13.5 36t33.5 14t34 -14t14 -36t-14 -36.5t-34 -14.5t-33.5 14.5t-13.5 36.5zM417 43q0 22 14 36t34 14t33.5 -14t13.5 -36t-13.5 -36.5t-33.5 -14.5
t-34 14.5t-14 36.5z" />
    <glyph glyph-name="perthousand" unicode="&#x2030;" horiz-adv-x="1384" 
d="M43 494q0 98 47 152.5t131 54.5t131.5 -55t47.5 -152q0 -98 -47.5 -152.5t-131.5 -54.5t-131 54.5t-47 152.5zM98 494q0 -75 32 -115.5t91 -40.5t91 40.5t32 115.5t-32 116t-91 41t-91 -41t-32 -116zM164 0l524 700h77l-523 -700h-78zM542 206q0 97 47 151.5t131 54.5
t131.5 -54.5t47.5 -151.5q0 -98 -47.5 -152.5t-131.5 -54.5t-131 54.5t-47 152.5zM597 206q0 -76 32 -116.5t91 -40.5t91 40.5t32 116.5q0 75 -32 115.5t-91 40.5t-91 -40.5t-32 -115.5zM985 206q0 97 47 151.5t131 54.5t131.5 -54.5t47.5 -151.5q0 -98 -47.5 -152.5
t-131.5 -54.5t-131 54.5t-47 152.5zM1040 206q0 -76 32 -116.5t91 -40.5t91 40.5t32 116.5q0 75 -32 115.5t-91 40.5t-91 -40.5t-32 -115.5z" />
    <glyph glyph-name="guilsinglleft" unicode="&#x2039;" horiz-adv-x="273" 
d="M37 255l113 168h68l-107 -168l107 -166h-68z" />
    <glyph glyph-name="guilsinglright" unicode="&#x203a;" horiz-adv-x="280" 
d="M76 89l108 168l-108 167h68l113 -167l-113 -168h-68z" />
    <glyph glyph-name="fraction" unicode="&#x2044;" horiz-adv-x="57" 
d="M-278 0l524 700h77l-523 -700h-78z" />
    <glyph glyph-name="Euro" unicode="&#x20ac;" horiz-adv-x="796" 
d="M43 233v51h99q-6 33 -6 67q0 32 6 64h-99v51h112q37 105 131.5 170.5t214.5 65.5q71 0 138.5 -27t116.5 -75l-46 -61q-88 88 -208 88q-86 0 -156 -44t-104 -117h271v-51h-288q-8 -32 -8 -64q0 -33 8 -67h288v-51h-269q35 -72 104.5 -115t153.5 -43q116 0 208 84l47 -55
q-51 -50 -119.5 -79t-139.5 -29q-119 0 -212 65.5t-130 171.5h-113z" />
    <glyph glyph-name="literSign" unicode="&#x2113;" horiz-adv-x="465" 
d="M37 175l81 60l47 284q17 91 60 138t99 47q45 0 73.5 -30.5t28.5 -87.5q0 -170 -250 -368q-14 -79 1 -117.5t67 -38.5q74 0 150 90l30 -36q-86 -119 -196 -119q-70 0 -97 45.5t-22 130.5l-56 -40zM187 292q87 71 137.5 150t50.5 143q0 32 -14.5 49t-38.5 17
q-32 0 -57.5 -31.5t-36.5 -95.5z" />
    <glyph glyph-name="trademark" unicode="&#x2122;" horiz-adv-x="875" 
d="M-3 645v55h319v-55h-130v-365h-60v365h-129zM382 280v420h72l145 -293l144 293h73v-420h-55v333l-143 -289h-38l-143 289v-333h-55z" />
    <glyph glyph-name="Omega" unicode="&#x2126;" horiz-adv-x="899" 
d="M11 0v72h231q-67 47 -109 129t-42 165q0 145 102 241t257 96q154 0 256.5 -96t102.5 -241q0 -82 -42.5 -164.5t-109.5 -129.5h232v-72h-322v68q74 40 122 122.5t48 168.5q0 117 -81.5 193.5t-205.5 76.5t-205.5 -76.5t-81.5 -193.5q0 -86 48 -168.5t122 -123.5v-67h-322z
" />
    <glyph glyph-name="estimated" unicode="&#x212e;" horiz-adv-x="809" 
d="M70 319q0 125 98 213.5t237 88.5t237 -88.5t98 -213.5v-7h-543q-5 0 -5 -4v-164q0 -9 8 -19q83 -89 206 -89q63 0 119.5 26.5t95.5 72.5h49q-46 -54 -116 -85.5t-149 -31.5q-139 0 -237 88t-98 213zM192 333q0 -5 5 -5h416q5 0 5 5v165q0 11 -9 20q-85 85 -203 85
q-120 0 -205 -88q-9 -9 -9 -20v-162z" />
    <glyph glyph-name="oneeighth" unicode="&#x215b;" horiz-adv-x="795" 
d="M21 648v52h144v-411h-59v359h-85zM39 0l524 700h77l-523 -700h-78zM434 114q0 38 24 65.5t66 40.5q-70 27 -70 90q0 48 37.5 75.5t102.5 27.5q64 0 101.5 -28t37.5 -77q0 -62 -66 -88q41 -13 64 -40.5t23 -64.5q0 -55 -43 -86t-117 -31t-117 31t-43 85zM490 121
q0 -37 27 -56.5t77 -19.5q49 0 76.5 19.5t27.5 55.5q0 35 -27.5 54t-76.5 19t-76.5 -19t-27.5 -53zM505 305q0 -31 23.5 -48t65.5 -17t65.5 17t23.5 48t-23.5 48t-65.5 17t-65.5 -17t-23.5 -48z" />
    <glyph glyph-name="threeeighths" unicode="&#x215c;" horiz-adv-x="860" 
d="M16 329l25 48q47 -42 109 -42q46 0 72 21.5t26 57.5q0 35 -26 53.5t-73 18.5h-55v36l124 129h-184v47h252v-37l-127 -134l23 -1q56 -4 90 -33.5t34 -77.5q0 -58 -41 -93t-111 -35q-81 0 -138 42zM103 0l524 700h77l-523 -700h-78zM499 114q0 38 24 65.5t66 40.5
q-70 27 -70 90q0 48 37.5 75.5t102.5 27.5q64 0 101.5 -28t37.5 -77q0 -62 -66 -88q41 -13 64 -40.5t23 -64.5q0 -55 -43 -86t-117 -31t-117 31t-43 85zM555 121q0 -37 27 -56.5t77 -19.5q49 0 76.5 19.5t27.5 55.5q0 35 -27.5 54t-76.5 19t-76.5 -19t-27.5 -53zM570 305
q0 -31 23.5 -48t65.5 -17t65.5 17t23.5 48t-23.5 48t-65.5 17t-65.5 -17t-23.5 -48z" />
    <glyph glyph-name="fiveeighths" unicode="&#x215d;" horiz-adv-x="879" 
d="M30 333l25 48q52 -46 116 -46q45 0 71 22.5t26 62.5q0 34 -26 53.5t-71 19.5q-65 0 -110 -12v219h253v-50h-198v-119q33 10 66 10q68 0 108 -32t40 -85q0 -62 -41.5 -99.5t-111.5 -37.5q-80 0 -147 46zM122 0l524 700h77l-523 -700h-78zM518 114q0 38 24 65.5t66 40.5
q-70 27 -70 90q0 48 37.5 75.5t102.5 27.5q64 0 101.5 -28t37.5 -77q0 -62 -66 -88q41 -13 64 -40.5t23 -64.5q0 -55 -43 -86t-117 -31t-117 31t-43 85zM574 121q0 -37 27 -56.5t77 -19.5q49 0 76.5 19.5t27.5 55.5q0 35 -27.5 54t-76.5 19t-76.5 -19t-27.5 -53zM589 305
q0 -31 23.5 -48t65.5 -17t65.5 17t23.5 48t-23.5 48t-65.5 17t-65.5 -17t-23.5 -48z" />
    <glyph glyph-name="seveneighths" unicode="&#x215e;" horiz-adv-x="844" 
d="M35 588v112h302v-47l-173 -364h-63l172 361h-185v-62h-53zM87 0l524 700h77l-523 -700h-78zM483 114q0 38 24 65.5t66 40.5q-70 27 -70 90q0 48 37.5 75.5t102.5 27.5q64 0 101.5 -28t37.5 -77q0 -62 -66 -88q41 -13 64 -40.5t23 -64.5q0 -55 -43 -86t-117 -31t-117 31
t-43 85zM539 121q0 -37 27 -56.5t77 -19.5q49 0 76.5 19.5t27.5 55.5q0 35 -27.5 54t-76.5 19t-76.5 -19t-27.5 -53zM554 305q0 -31 23.5 -48t65.5 -17t65.5 17t23.5 48t-23.5 48t-65.5 17t-65.5 -17t-23.5 -48z" />
    <glyph glyph-name="partialdiff" unicode="&#x2202;" horiz-adv-x="604" 
d="M42 227q0 101 60 161t162 60q81 0 135.5 -38.5t72.5 -106.5q12 154 -44 241.5t-167 87.5q-87 0 -164 -53l-32 64q96 60 201 60q131 0 208 -99.5t77 -265.5q0 -163 -72.5 -252.5t-200.5 -89.5q-108 0 -172 62.5t-64 168.5zM117 229q0 -74 45.5 -116.5t121.5 -42.5
q82 0 126 47.5t44 105.5q0 66 -48.5 111.5t-128.5 45.5q-74 0 -117 -40.5t-43 -110.5z" />
    <glyph glyph-name="product" unicode="&#x220f;" horiz-adv-x="755" 
d="M106 -194v936h543v-936h-78v866h-387v-866h-78z" />
    <glyph glyph-name="summation" unicode="&#x2211;" horiz-adv-x="608" 
d="M35 -71l314 379l-308 366v69h555v-76h-463l304 -358l-306 -371h475v-76h-571v67z" />
    <glyph glyph-name="minus" unicode="&#x2212;" horiz-adv-x="491" 
d="M37 294v58h417v-58h-417z" />
    <glyph glyph-name="divisionslash" unicode="&#x2215;" horiz-adv-x="317" 
d="M-11 -122l312 942h69l-313 -942h-68z" />
    <glyph glyph-name="bulletoperator" unicode="&#x2219;" horiz-adv-x="248" 
d="M51 268q0 33 21 55t52 22t52 -22t21 -55q0 -34 -21 -56.5t-52 -22.5t-52 22.5t-21 56.5z" />
    <glyph glyph-name="radical" unicode="&#x221a;" horiz-adv-x="677" 
d="M16 323v69h176l148 -453l249 813h76l-284 -903h-83l-160 474h-122z" />
    <glyph glyph-name="infinity" unicode="&#x221e;" horiz-adv-x="889" 
d="M42 303q0 82 53 137.5t133 55.5q79 0 126 -37t90 -106q27 44 50.5 71.5t67.5 49.5t99 22q80 0 133 -55t53 -137q0 -83 -53 -138t-133 -55q-55 0 -98.5 22t-66.5 49t-51 71q-43 -69 -90 -106t-127 -37t-133 55.5t-53 137.5zM98 303q0 -57 37 -94t93 -37q46 0 83 20
t57.5 45t45.5 67q-38 63 -79 96.5t-107 33.5q-56 0 -93 -37.5t-37 -93.5zM475 303q38 -63 79 -96.5t107 -33.5q56 0 93 37t37 94q0 56 -37 93t-93 37q-66 0 -106.5 -33.5t-79.5 -97.5z" />
    <glyph glyph-name="integral" unicode="&#x222b;" horiz-adv-x="312" 
d="M-1 -103l13 58q25 -14 51 -14q40 0 57.5 30.5t17.5 101.5q0 74 -10.5 285t-10.5 279q0 107 29.5 153t97.5 46q30 0 67 -17l-12 -58q-22 11 -47 11q-40 0 -57 -29.5t-17 -99.5q0 -67 10 -279t10 -286q0 -108 -29 -154t-98 -46q-37 0 -72 19z" />
    <glyph glyph-name="approxequal" unicode="&#x2248;" horiz-adv-x="491" 
d="M73 167q0 119 86 119q33 0 86.5 -31t74.5 -31q43 0 43 54h56q0 -119 -86 -119q-36 0 -88 30.5t-73 30.5q-43 0 -43 -53h-56zM73 380q0 119 86 119q33 0 86.5 -30.5t74.5 -30.5q43 0 43 54h56q0 -120 -86 -120q-36 0 -88 31t-73 31q-43 0 -43 -54h-56z" />
    <glyph glyph-name="notequal" unicode="&#x2260;" horiz-adv-x="491" 
d="M37 190v59h149l47 148h-196v59h215l46 147h61l-46 -147h141v-59h-160l-47 -148h207v-59h-226l-48 -153h-61l48 153h-130z" />
    <glyph glyph-name="lessequal" unicode="&#x2264;" horiz-adv-x="491" 
d="M37 32v59h417v-59h-417zM37 350v74l417 183v-64l-363 -156l363 -156v-64z" />
    <glyph glyph-name="greaterequal" unicode="&#x2265;" horiz-adv-x="491" 
d="M37 32v59h417v-59h-417zM37 170v64l363 156l-363 156v64l417 -183v-74z" />
    <glyph glyph-name="lozenge" unicode="&#x25ca;" horiz-adv-x="522" 
d="M42 330l219 331l219 -331l-220 -333zM116 330l144 -210l146 210l-145 210z" />
    <glyph glyph-name="zero.dnom" horiz-adv-x="442" 
d="M43 206q0 97 47 151.5t131 54.5t131.5 -54.5t47.5 -151.5q0 -98 -47.5 -152.5t-131.5 -54.5t-131 54.5t-47 152.5zM98 206q0 -76 32 -116.5t91 -40.5t91 40.5t32 116.5q0 75 -32 115.5t-91 40.5t-91 -40.5t-32 -115.5z" />
    <glyph glyph-name="one.dnom" horiz-adv-x="254" 
d="M21 360v51h144v-411h-59v360h-85z" />
    <glyph glyph-name="two.dnom" horiz-adv-x="380" 
d="M34 355q71 58 150 58q59 0 95.5 -28t36.5 -74q0 -59 -77 -134l-125 -127h224v-50h-298v44l159 165q55 55 55 94q0 27 -21 42.5t-58 15.5q-60 0 -116 -51z" />
    <glyph glyph-name="three.dnom" horiz-adv-x="348" 
d="M16 40l25 49q46 -43 109 -43q46 0 72 21.5t26 57.5q0 72 -99 72h-55v36l124 129h-184v48h252v-38l-127 -134l23 -1q56 -4 90 -33t34 -77q0 -58 -41 -93.5t-111 -35.5q-79 0 -138 42z" />
    <glyph glyph-name="four.dnom" horiz-adv-x="381" 
d="M30 104v46l149 261h58l-147 -260h144v110h56v-110h63v-47h-63v-104h-56v104h-204z" />
    <glyph glyph-name="five.dnom" horiz-adv-x="370" 
d="M30 44l25 49q52 -47 116 -47q45 0 71 22.5t26 62.5q0 34 -26 54t-71 20q-61 0 -110 -13v219h253v-50h-198v-118q36 9 66 9q68 0 108 -32t40 -85q0 -62 -41.5 -99.5t-111.5 -37.5q-77 0 -147 46z" />
    <glyph glyph-name="six.dnom" horiz-adv-x="395" 
d="M43 197q0 98 48.5 157t130.5 59q65 0 123 -30l-23 -46q-43 26 -97 26q-65 0 -98 -47t-26 -130q11 36 43.5 57t79.5 21q62 0 98.5 -35.5t36.5 -94.5q0 -63 -40 -99.5t-107 -36.5q-79 0 -124 52t-45 147zM112 131q0 -31 25 -56.5t72 -25.5q43 0 69 23t26 63q0 38 -25 60
t-67 22q-46 0 -73 -24.5t-27 -61.5z" />
    <glyph glyph-name="seven.dnom" horiz-adv-x="365" 
d="M35 299v112h302v-47l-173 -364h-63l172 361h-185v-62h-53z" />
    <glyph glyph-name="eight.dnom" horiz-adv-x="402" 
d="M41 114q0 38 24 65.5t66 40.5q-70 27 -70 90q0 48 37.5 75.5t102.5 27.5q64 0 101.5 -28t37.5 -77q0 -62 -66 -88q41 -13 64 -40.5t23 -64.5q0 -55 -43 -86t-117 -31t-117 31t-43 85zM97 121q0 -37 27 -56.5t77 -19.5q49 0 76.5 19.5t27.5 55.5q0 35 -27.5 54t-76.5 19
t-76.5 -19t-27.5 -53zM112 305q0 -31 23.5 -48t65.5 -17t65.5 17t23.5 48t-23.5 48t-65.5 17t-65.5 -17t-23.5 -48z" />
    <glyph glyph-name="nine.dnom" horiz-adv-x="398" 
d="M39 277q0 63 40 99.5t107 36.5q80 0 124.5 -52.5t44.5 -147.5q0 -98 -48 -156.5t-130 -58.5q-67 0 -124 30l24 45q41 -26 96 -26q65 0 98 47t26 130q-11 -36 -43.5 -57t-79.5 -21q-62 0 -98.5 35.5t-36.5 95.5zM95 276q0 -38 24.5 -60t66.5 -22q46 0 73 24.5t27 59.5
q0 32 -24.5 57.5t-71.5 25.5q-43 0 -69 -23t-26 -62z" />
    <glyph glyph-name="zero.numr" horiz-adv-x="442" 
d="M43 494q0 98 47 152.5t131 54.5t131.5 -55t47.5 -152q0 -98 -47.5 -152.5t-131.5 -54.5t-131 54.5t-47 152.5zM98 494q0 -75 32 -115.5t91 -40.5t91 40.5t32 115.5t-32 116t-91 41t-91 -41t-32 -116z" />
    <glyph glyph-name="one.numr" horiz-adv-x="254" 
d="M21 648v52h144v-411h-59v359h-85z" />
    <glyph glyph-name="two.numr" horiz-adv-x="380" 
d="M34 643q70 59 150 59q60 0 96 -28t36 -75q0 -58 -77 -133l-125 -127h224v-50h-298v44l159 165q55 55 55 94q0 27 -21 42.5t-58 15.5q-61 0 -116 -52z" />
    <glyph glyph-name="three.numr" horiz-adv-x="348" 
d="M16 329l25 48q47 -42 109 -42q46 0 72 21.5t26 57.5q0 35 -26 53.5t-73 18.5h-55v36l124 129h-184v47h252v-37l-127 -134l23 -1q56 -4 90 -33.5t34 -77.5q0 -58 -41 -93t-111 -35q-81 0 -138 42z" />
    <glyph glyph-name="four.numr" horiz-adv-x="381" 
d="M30 393v46l149 261h58l-147 -260h144v109h56v-109h63v-47h-63v-104h-56v104h-204z" />
    <glyph glyph-name="five.numr" horiz-adv-x="370" 
d="M30 333l25 48q52 -46 116 -46q45 0 71 22.5t26 62.5q0 34 -26 53.5t-71 19.5q-65 0 -110 -12v219h253v-50h-198v-119q33 10 66 10q68 0 108 -32t40 -85q0 -62 -41.5 -99.5t-111.5 -37.5q-80 0 -147 46z" />
    <glyph glyph-name="six.numr" horiz-adv-x="395" 
d="M43 486q0 98 48.5 157t130.5 59q65 0 123 -30l-23 -46q-43 26 -97 26q-65 0 -98 -47t-26 -130q11 36 43.5 57t79.5 21q62 0 98.5 -35.5t36.5 -95.5q0 -62 -40 -98.5t-107 -36.5q-79 0 -124 52t-45 147zM112 420q0 -32 25.5 -57.5t71.5 -25.5q43 0 69 23.5t26 63.5
q0 38 -25 59.5t-67 21.5q-46 0 -73 -24.5t-27 -60.5z" />
    <glyph glyph-name="seven.numr" horiz-adv-x="365" 
d="M35 588v112h302v-47l-173 -364h-63l172 361h-185v-62h-53z" />
    <glyph glyph-name="eight.numr" horiz-adv-x="402" 
d="M41 403q0 38 24 65.5t66 39.5q-70 29 -70 91q0 48 37.5 75.5t102.5 27.5q64 0 101.5 -28t37.5 -77q0 -62 -66 -89q41 -12 64 -39.5t23 -64.5q0 -55 -42.5 -86t-117.5 -31t-117.5 30.5t-42.5 85.5zM97 410q0 -37 27 -56.5t77 -19.5q49 0 76.5 19.5t27.5 55.5
q0 35 -27.5 54t-76.5 19t-76.5 -19t-27.5 -53zM112 594q0 -31 23.5 -48t65.5 -17t65.5 17t23.5 48t-23.5 48t-65.5 17t-65.5 -17t-23.5 -48z" />
    <glyph glyph-name="nine.numr" horiz-adv-x="398" 
d="M39 565q0 63 40 100t107 37q80 0 124.5 -53t44.5 -147q0 -98 -48 -156.5t-130 -58.5q-67 0 -124 30l24 45q41 -26 96 -26q65 0 98 47t26 130q-11 -36 -43.5 -57t-79.5 -21q-62 0 -98.5 35.5t-36.5 94.5zM95 564q0 -38 24.5 -60t66.5 -22q46 0 73 24.5t27 60.5
q0 32 -24.5 57.5t-71.5 25.5q-43 0 -69 -23t-26 -63z" />
    </font>
</defs>
</svg>
