<svg xmlns="http://www.w3.org/2000/svg" viewBox="3490.673 410 96.655 74.432">
  <defs>
    <style>
      .cls-1 {
        fill: #1d1d1d;
      }
    </style>
  </defs>
  <g id="Group_54" data-name="Group 54" transform="translate(3490.673 410)">
    <path id="Path_72" data-name="Path 72" class="cls-1" d="M149.139,143.379a24.639,24.639,0,1,1,24.639-24.639A24.669,24.669,0,0,1,149.139,143.379Zm0-46.063a21.414,21.414,0,1,0,21.424,21.4A21.445,21.445,0,0,0,149.139,97.315Z" transform="translate(-100.812 -76.196)"/>
    <path id="Path_73" data-name="Path 73" class="cls-1" d="M189.14,173.88a15.24,15.24,0,1,1,15.24-15.24A15.262,15.262,0,0,1,189.14,173.88Zm0-27.436a12.215,12.215,0,1,0,12.215,12.215A12.229,12.229,0,0,0,189.14,146.444Z" transform="translate(-140.813 -116.116)"/>
    <path id="Path_74" data-name="Path 74" class="cls-1" d="M5.917,74.432A5.911,5.911,0,0,1,0,68.515V16.553a5.924,5.924,0,0,1,5.917-5.917h3.1V7.458a3.715,3.715,0,0,1,3.71-3.71H18.76a3.715,3.715,0,0,1,3.71,3.71v3.177h9.361l2.7-7.382A5,5,0,0,1,39.195,0H57.46a4.98,4.98,0,0,1,4.662,3.254l2.7,7.382H90.738a5.924,5.924,0,0,1,5.917,5.917V68.515a5.924,5.924,0,0,1-5.917,5.917ZM3.425,68.515A2.469,2.469,0,0,0,5.9,70.988H90.738a2.51,2.51,0,0,0,1.75-.723,2.43,2.43,0,0,0,.723-1.75V62.749h-8.7A1.705,1.705,0,0,1,82.8,61.037V24.031a1.705,1.705,0,0,1,1.712-1.712H93.23V16.553a2.469,2.469,0,0,0-2.473-2.473H5.917a2.469,2.469,0,0,0-2.473,2.473v5.765h8.7a1.705,1.705,0,0,1,1.712,1.712V61.037a1.705,1.705,0,0,1-1.712,1.712H3.425Zm82.822-9.19H93.23V25.743H86.266V59.325Zm-82.822,0h6.964V25.743H3.425Zm35.77-55.9a1.541,1.541,0,0,0-1.446,1.008l-2.283,6.2H61.151l-2.283-6.2a1.541,1.541,0,0,0-1.446-1.008ZM12.729,6.983a.491.491,0,0,0-.495.495v3.177h7v-3.2a.491.491,0,0,0-.495-.495H12.729Z" transform="translate(0)"/>
    <path id="Path_75" data-name="Path 75" class="cls-1" d="M217,193.928a1.506,1.506,0,0,1-1.5-1.5,7.328,7.328,0,0,1,7.325-7.325,1.5,1.5,0,1,1,0,3.006,4.328,4.328,0,0,0-4.319,4.319A1.519,1.519,0,0,1,217,193.928Z" transform="translate(-174.498 -149.882)"/>
  </g>
</svg>
