<svg xmlns="http://www.w3.org/2000/svg" viewBox="784 1349 50 50">
  <defs>
    <style>
      .cls-1 {
        fill: #1cc194;
      }

      .cls-2, .cls-4 {
        fill: #fff;
      }

      .cls-3, .cls-4 {
        stroke: none;
      }
    </style>
  </defs>
  <g id="Symbol_13_1" data-name="Symbol 13 – 1" transform="translate(580 -387)">
    <g id="Group_43" data-name="Group 43" transform="translate(0 -7)">
      <g id="Path_61" data-name="Path 61" class="cls-1" transform="translate(204 1743)">
        <path class="cls-3" d="M 25 49 C 21.75958061218262 49 18.61661911010742 48.36558151245117 15.65841960906982 47.1143684387207 C 12.80064010620117 45.9056282043457 10.23388004302979 44.17499923706055 8.029439926147461 41.97055816650391 C 5.824999809265137 39.76612091064453 4.094369888305664 37.19935989379883 2.885629892349243 34.34157943725586 C 1.634420037269592 31.38338088989258 1 28.24041938781738 1 25 C 1 21.75958061218262 1.634420037269592 18.61661911010742 2.885629892349243 15.65841960906982 C 4.094369888305664 12.80064010620117 5.824999809265137 10.23388004302979 8.029439926147461 8.029439926147461 C 10.23388004302979 5.824999809265137 12.80064010620117 4.094369888305664 15.65841960906982 2.885629892349243 C 18.61661911010742 1.634420037269592 21.75958061218262 1 25 1 C 28.24041938781738 1 31.38338088989258 1.634420037269592 34.34157943725586 2.885629892349243 C 37.19935989379883 4.094369888305664 39.76612091064453 5.824999809265137 41.97055816650391 8.029439926147461 C 44.17499923706055 10.23388004302979 45.9056282043457 12.80064010620117 47.1143684387207 15.65841960906982 C 48.36558151245117 18.61661911010742 49 21.75958061218262 49 25 C 49 28.24041938781738 48.36558151245117 31.38338088989258 47.1143684387207 34.34157943725586 C 45.9056282043457 37.19935989379883 44.17499923706055 39.76612091064453 41.97055816650391 41.97055816650391 C 39.76612091064453 44.17499923706055 37.19935989379883 45.9056282043457 34.34157943725586 47.1143684387207 C 31.38338088989258 48.36558151245117 28.24041938781738 49 25 49 Z"/>
        <path class="cls-4" d="M 25 48 C 28.10585975646973 48 31.11775970458984 47.39215850830078 33.95201873779297 46.1933708190918 C 36.69060897827148 45.03504180908203 39.15053176879883 43.37638092041016 41.26345825195312 41.26345825195312 C 43.37638092041016 39.15053176879883 45.03504180908203 36.69060897827148 46.1933708190918 33.95201873779297 C 47.39215850830078 31.11775970458984 48 28.10585975646973 48 25 C 48 21.89414024353027 47.39215850830078 18.88224029541016 46.1933708190918 16.0479793548584 C 45.03504180908203 13.3093900680542 43.37638092041016 10.8494701385498 41.26345825195312 8.736539840698242 C 39.15053176879883 6.62362003326416 36.69060897827148 4.964960098266602 33.95201873779297 3.80662989616394 C 31.11775970458984 2.607840061187744 28.10585975646973 2 25 2 C 21.89414024353027 2 18.88224029541016 2.607840061187744 16.0479793548584 3.80662989616394 C 13.3093900680542 4.964960098266602 10.8494701385498 6.62362003326416 8.736539840698242 8.736539840698242 C 6.62362003326416 10.8494701385498 4.964960098266602 13.3093900680542 3.80662989616394 16.0479793548584 C 2.607840061187744 18.88224029541016 2 21.89414024353027 2 25 C 2 28.10585975646973 2.607840061187744 31.11775970458984 3.80662989616394 33.95201873779297 C 4.964960098266602 36.69060897827148 6.62362003326416 39.15053176879883 8.736539840698242 41.26345825195312 C 10.8494701385498 43.37638092041016 13.3093900680542 45.03504180908203 16.0479793548584 46.1933708190918 C 18.88224029541016 47.39215850830078 21.89414024353027 48 25 48 M 25 50 C 11.19287967681885 50 -3.552713678800501e-15 38.80712127685547 -3.552713678800501e-15 25 C -3.552713678800501e-15 11.19287967681885 11.19287967681885 -3.552713678800501e-15 25 -3.552713678800501e-15 C 38.80712127685547 -3.552713678800501e-15 50 11.19287967681885 50 25 C 50 38.80712127685547 38.80712127685547 50 25 50 Z"/>
      </g>
      <g id="Group_34" data-name="Group 34" transform="translate(216.5 1759.25)">
        <path id="Path_8" data-name="Path 8" class="cls-2" d="M46.25,61.778A5.305,5.305,0,0,0,42.775,60.5,5.425,5.425,0,0,0,39.3,61.778l3.475,4.08Z" transform="translate(-30.49 -46.937)"/>
        <path id="Path_9" data-name="Path 9" class="cls-2" d="M27.879,34.208a8.6,8.6,0,0,1,5.582,2.063l2.2-2.578A11.976,11.976,0,0,0,27.879,30.8,11.815,11.815,0,0,0,20.1,33.692l2.2,2.578A8.481,8.481,0,0,1,27.879,34.208Z" transform="translate(-15.594 -23.895)"/>
        <path id="Path_10" data-name="Path 10" class="cls-2" d="M12.285,3.385A15.5,15.5,0,0,1,22.351,7.107l2.2-2.578A18.863,18.863,0,0,0,0,4.551L2.2,7.129A15.419,15.419,0,0,1,12.285,3.385Z" transform="translate(0 0)"/>
      </g>
    </g>
  </g>
</svg>
