<svg xmlns="http://www.w3.org/2000/svg" viewBox="4986 -130 50 50">
  <defs>
    <style>
      .cls-1 {
        fill: #1cc194;
      }

      .cls-2 {
        fill: #fff;
      }
    </style>
  </defs>
  <g id="Group_59" data-name="Group 59" transform="translate(4778 -2323)">
    <path id="Path_60" data-name="Path 60" class="cls-1" d="M25,0A25,25,0,1,1,0,25,25,25,0,0,1,25,0Z" transform="translate(208 2193)"/>
    <g id="Group_33" data-name="Group 33" transform="translate(220.5 2209.25)">
      <path id="Path_8" data-name="Path 8" class="cls-2" d="M46.25,61.778A5.305,5.305,0,0,0,42.775,60.5,5.425,5.425,0,0,0,39.3,61.778l3.475,4.08Z" transform="translate(-30.49 -46.937)"/>
      <path id="Path_9" data-name="Path 9" class="cls-2" d="M27.879,34.208a8.6,8.6,0,0,1,5.582,2.063l2.2-2.578A11.976,11.976,0,0,0,27.879,30.8,11.815,11.815,0,0,0,20.1,33.692l2.2,2.578A8.481,8.481,0,0,1,27.879,34.208Z" transform="translate(-15.594 -23.895)"/>
      <path id="Path_10" data-name="Path 10" class="cls-2" d="M12.285,3.385A15.5,15.5,0,0,1,22.351,7.107l2.2-2.578A18.863,18.863,0,0,0,0,4.551L2.2,7.129A15.419,15.419,0,0,1,12.285,3.385Z" transform="translate(0 0)"/>
    </g>
  </g>
</svg>
