<svg xmlns="http://www.w3.org/2000/svg" viewBox="498 -140.818 82.269 99.818">
  <defs>
    <style>
      .cls-1 {
        fill: #fff;
      }

      .cls-2 {
        fill: none;
      }
    </style>
  </defs>
  <g id="Group_57" data-name="Group 57" transform="translate(498.025 -140.818)">
    <path id="Path_79" data-name="Path 79" class="cls-1" d="M13.149,59.113a1.863,1.863,0,0,1-1.167-.454,41.194,41.194,0,0,1,0-58.141A1.743,1.743,0,0,1,13.149,0a1.863,1.863,0,0,1,1.167.454,1.562,1.562,0,0,1,.454,1.167,1.863,1.863,0,0,1-.454,1.167,37.947,37.947,0,0,0,0,53.6,1.562,1.562,0,0,1,.454,1.167,1.863,1.863,0,0,1-.454,1.167A2.275,2.275,0,0,1,13.149,59.113Z"/>
    <path id="Path_80" data-name="Path 80" class="cls-1" d="M105.6,59.148a1.864,1.864,0,0,1-1.167-.454,1.47,1.47,0,0,1-.454-1.167,1.863,1.863,0,0,1,.454-1.167,37.869,37.869,0,0,0,0-53.539,1.566,1.566,0,0,1,0-2.269A1.562,1.562,0,0,1,105.6.1a1.863,1.863,0,0,1,1.167.454,41.155,41.155,0,0,1,0,58.205A2.275,2.275,0,0,1,105.6,59.148Z" transform="translate(-36.582 -0.035)"/>
    <path id="Path_81" data-name="Path 81" class="cls-1" d="M31.7,54.312a1.864,1.864,0,0,1-1.167-.454,26.367,26.367,0,0,1,0-37.2A1.562,1.562,0,0,1,31.7,16.2a1.863,1.863,0,0,1,1.167.454,1.566,1.566,0,0,1,0,2.269,23.042,23.042,0,0,0,0,32.6,1.562,1.562,0,0,1,.454,1.167,1.863,1.863,0,0,1-.454,1.167A1.562,1.562,0,0,1,31.7,54.312Z" transform="translate(-8.048 -5.7)"/>
    <path id="Path_82" data-name="Path 82" class="cls-1" d="M89.5,54.277a1.863,1.863,0,0,1-1.167-.454,1.566,1.566,0,0,1,0-2.269,23.16,23.16,0,0,0,0-32.668,1.562,1.562,0,0,1-.454-1.167,1.864,1.864,0,0,1,.454-1.167A1.562,1.562,0,0,1,89.5,16.1a1.863,1.863,0,0,1,1.167.454,26.289,26.289,0,0,1,0,37.2A1.491,1.491,0,0,1,89.5,54.277Z" transform="translate(-30.917 -5.665)"/>
    <path id="Path_83" data-name="Path 83" class="cls-1" d="M59.284,49.067a7.584,7.584,0,1,1,7.584-7.584A7.593,7.593,0,0,1,59.284,49.067Z" transform="translate(-18.199 -11.927)"/>
    <path id="Path_84" data-name="Path 84" class="cls-1" d="M70.153,124.024a1.679,1.679,0,0,1-1.556-1.1l-2.593-7.908H40.532l-2.593,7.908a1.617,1.617,0,0,1-1.556,1.1,1.427,1.427,0,0,1-.519-.065,1.611,1.611,0,0,1-1.1-2.009L51.616,69.9a1.617,1.617,0,0,1,1.556-1.1,1.679,1.679,0,0,1,1.556,1.1L71.579,121.95a1.393,1.393,0,0,1-.13,1.232,1.486,1.486,0,0,1-.972.778C70.542,123.959,70.348,124.024,70.153,124.024ZM41.634,111.709h23.4L60.755,98.486H45.912Zm5.315-16.463H59.718l-6.352-19.7Z" transform="translate(-12.216 -24.206)"/>
    <rect id="Rectangle_39" data-name="Rectangle 39" class="cls-2" width="82.252" height="99.688" transform="translate(-0.009 0.13)"/>
  </g>
</svg>
