<svg xmlns="http://www.w3.org/2000/svg" viewBox="2938 2646 27 27">
  <defs>
    <style>
      .cls-1 {
        fill: #3379d1;
      }

      .cls-2, .cls-4 {
        fill: #fff;
      }

      .cls-3, .cls-4 {
        stroke: none;
      }
    </style>
  </defs>
  <g id="Symbol_14_6" data-name="Symbol 14 – 6" transform="translate(2598 -378)">
    <g id="Path_62" data-name="Path 62" class="cls-1" transform="translate(340 3024)">
      <path class="cls-3" d="M 13.5 26 C 10.16112995147705 26 7.022109985351562 24.69976997375488 4.66117000579834 22.33883094787598 C 2.300230026245117 19.97789001464844 1 16.83886909484863 1 13.5 C 1 10.16112995147705 2.300230026245117 7.022109985351562 4.66117000579834 4.66117000579834 C 7.022109985351562 2.300230026245117 10.16112995147705 1 13.5 1 C 16.83886909484863 1 19.97789001464844 2.300230026245117 22.33883094787598 4.66117000579834 C 24.69976997375488 7.022109985351562 26 10.16112995147705 26 13.5 C 26 16.83886909484863 24.69976997375488 19.97789001464844 22.33883094787598 22.33883094787598 C 19.97789001464844 24.69976997375488 16.83886909484863 26 13.5 26 Z"/>
      <path class="cls-4" d="M 13.5 25 C 16.5717601776123 25 19.45965957641602 23.80378913879395 21.63172912597656 21.63172912597656 C 23.80378913879395 19.45965957641602 25 16.5717601776123 25 13.5 C 25 10.4282398223877 23.80378913879395 7.540339946746826 21.63172912597656 5.368269920349121 C 19.45965957641602 3.196209907531738 16.5717601776123 2 13.5 2 C 10.4282398223877 2 7.540339946746826 3.196209907531738 5.368269920349121 5.368269920349121 C 3.196209907531738 7.540339946746826 2 10.4282398223877 2 13.5 C 2 16.5717601776123 3.196209907531738 19.45965957641602 5.368269920349121 21.63172912597656 C 7.540339946746826 23.80378913879395 10.4282398223877 25 13.5 25 M 13.5 27 C 6.044159889221191 27 -1.77635683940025e-15 20.95583915710449 -1.77635683940025e-15 13.5 C -1.77635683940025e-15 6.044159889221191 6.044159889221191 -1.77635683940025e-15 13.5 -1.77635683940025e-15 C 20.95583915710449 -1.77635683940025e-15 27 6.044159889221191 27 13.5 C 27 20.95583915710449 20.95583915710449 27 13.5 27 Z"/>
    </g>
    <g id="Group_29" data-name="Group 29" transform="translate(347 3033.039)">
      <path id="Path_8" data-name="Path 8" class="cls-2" d="M43,61.18a2.825,2.825,0,0,0-1.85-.68,2.889,2.889,0,0,0-1.85.68l1.85,2.172Z" transform="translate(-34.609 -53.279)"/>
      <path id="Path_9" data-name="Path 9" class="cls-2" d="M24.242,32.614a4.578,4.578,0,0,1,2.972,1.1l1.17-1.373a6.376,6.376,0,0,0-4.142-1.54A6.29,6.29,0,0,0,20.1,32.34l1.17,1.373A4.515,4.515,0,0,1,24.242,32.614Z" transform="translate(-17.701 -27.124)"/>
      <path id="Path_10" data-name="Path 10" class="cls-2" d="M6.541,1.8A8.254,8.254,0,0,1,11.9,3.784l1.17-1.373A10.043,10.043,0,0,0,0,2.423L1.17,3.8A8.209,8.209,0,0,1,6.541,1.8Z" transform="translate(0 0)"/>
    </g>
  </g>
</svg>
