<svg xmlns="http://www.w3.org/2000/svg" viewBox="3167 2646 27 27">
  <defs>
    <style>
      .cls-1 {
        fill: #3379d1;
      }

      .cls-2, .cls-6 {
        fill: none;
      }

      .cls-2, .cls-3 {
        stroke: #fff;
        stroke-width: 1.6px;
      }

      .cls-3, .cls-5 {
        fill: #fff;
      }

      .cls-4, .cls-5 {
        stroke: none;
      }
    </style>
  </defs>
  <g id="Symbol_15_4" data-name="Symbol 15 – 4" transform="translate(2778 -414)">
    <g id="Path_78" data-name="Path 78" class="cls-1" transform="translate(389 3060)">
      <path class="cls-4" d="M 13.5 26 C 10.16112995147705 26 7.022109985351562 24.69976997375488 4.66117000579834 22.33883094787598 C 2.300230026245117 19.97789001464844 1 16.83886909484863 1 13.5 C 1 10.16112995147705 2.300230026245117 7.022109985351562 4.66117000579834 4.66117000579834 C 7.022109985351562 2.300230026245117 10.16112995147705 1 13.5 1 C 16.83886909484863 1 19.97789001464844 2.300230026245117 22.33883094787598 4.66117000579834 C 24.69976997375488 7.022109985351562 26 10.16112995147705 26 13.5 C 26 16.83886909484863 24.69976997375488 19.97789001464844 22.33883094787598 22.33883094787598 C 19.97789001464844 24.69976997375488 16.83886909484863 26 13.5 26 Z"/>
      <path class="cls-5" d="M 13.5 25 C 16.5717601776123 25 19.45965957641602 23.80378913879395 21.63172912597656 21.63172912597656 C 23.80378913879395 19.45965957641602 25 16.5717601776123 25 13.5 C 25 10.4282398223877 23.80378913879395 7.540339946746826 21.63172912597656 5.368269920349121 C 19.45965957641602 3.196209907531738 16.5717601776123 2 13.5 2 C 10.4282398223877 2 7.540339946746826 3.196209907531738 5.368269920349121 5.368269920349121 C 3.196209907531738 7.540339946746826 2 10.4282398223877 2 13.5 C 2 16.5717601776123 3.196209907531738 19.45965957641602 5.368269920349121 21.63172912597656 C 7.540339946746826 23.80378913879395 10.4282398223877 25 13.5 25 M 13.5 27 C 6.044159889221191 27 -1.77635683940025e-15 20.95583915710449 -1.77635683940025e-15 13.5 C -1.77635683940025e-15 6.044159889221191 6.044159889221191 -1.77635683940025e-15 13.5 -1.77635683940025e-15 C 20.95583915710449 -1.77635683940025e-15 27 6.044159889221191 27 13.5 C 27 20.95583915710449 20.95583915710449 27 13.5 27 Z"/>
    </g>
    <g id="Group_46" data-name="Group 46" transform="translate(0.401 0.694)">
      <g id="Rectangle_35" data-name="Rectangle 35" class="cls-2" transform="translate(396.233 3068.069)">
        <rect class="cls-4" width="11.637" height="10.667"/>
        <rect class="cls-6" x="0.8" y="0.8" width="10.037" height="9.067"/>
      </g>
      <g id="Group_45" data-name="Group 45" transform="translate(400.112 3066.928)">
        <path id="Path_64" data-name="Path 64" class="cls-3" d="M3188.048,2711.823v3.679" transform="translate(-3188.048 -2711.823)"/>
        <path id="Path_65" data-name="Path 65" class="cls-3" d="M3188.048,2711.823v3.679" transform="translate(-3184.169 -2711.823)"/>
      </g>
    </g>
  </g>
</svg>
