<svg xmlns="http://www.w3.org/2000/svg" viewBox="3327 2646 27 27">
  <defs>
    <style>
      .cls-1 {
        fill: #3379d1;
      }

      .cls-2, .cls-3 {
        fill: none;
      }

      .cls-3 {
        stroke: #fff;
        stroke-width: 1.6px;
      }

      .cls-4, .cls-5 {
        stroke: none;
      }

      .cls-5 {
        fill: #fff;
      }
    </style>
  </defs>
  <g id="Symbol_18_3" data-name="Symbol 18 – 3" transform="translate(2787 30)">
    <g id="Path_77" data-name="Path 77" class="cls-1" transform="translate(540 2616)">
      <path class="cls-4" d="M 13.5 26 C 10.16112995147705 26 7.022109985351562 24.69976997375488 4.66117000579834 22.33883094787598 C 2.300230026245117 19.97789001464844 1 16.83886909484863 1 13.5 C 1 10.16112995147705 2.300230026245117 7.022109985351562 4.66117000579834 4.66117000579834 C 7.022109985351562 2.300230026245117 10.16112995147705 1 13.5 1 C 16.83886909484863 1 19.97789001464844 2.300230026245117 22.33883094787598 4.66117000579834 C 24.69976997375488 7.022109985351562 26 10.16112995147705 26 13.5 C 26 16.83886909484863 24.69976997375488 19.97789001464844 22.33883094787598 22.33883094787598 C 19.97789001464844 24.69976997375488 16.83886909484863 26 13.5 26 Z"/>
      <path class="cls-5" d="M 13.5 25 C 16.5717601776123 25 19.45965957641602 23.80378913879395 21.63172912597656 21.63172912597656 C 23.80378913879395 19.45965957641602 25 16.5717601776123 25 13.5 C 25 10.4282398223877 23.80378913879395 7.540339946746826 21.63172912597656 5.368269920349121 C 19.45965957641602 3.196209907531738 16.5717601776123 2 13.5 2 C 10.4282398223877 2 7.540339946746826 3.196209907531738 5.368269920349121 5.368269920349121 C 3.196209907531738 7.540339946746826 2 10.4282398223877 2 13.5 C 2 16.5717601776123 3.196209907531738 19.45965957641602 5.368269920349121 21.63172912597656 C 7.540339946746826 23.80378913879395 10.4282398223877 25 13.5 25 M 13.5 27 C 6.044159889221191 27 -1.77635683940025e-15 20.95583915710449 -1.77635683940025e-15 13.5 C -1.77635683940025e-15 6.044159889221191 6.044159889221191 -1.77635683940025e-15 13.5 -1.77635683940025e-15 C 20.95583915710449 -1.77635683940025e-15 27 6.044159889221191 27 13.5 C 27 20.95583915710449 20.95583915710449 27 13.5 27 Z"/>
    </g>
    <g id="Group_47" data-name="Group 47" transform="translate(97 -455)">
      <g id="Path_70" data-name="Path 70" class="cls-2" transform="translate(449.958 3077.975)">
        <path class="cls-4" d="M6.71,0A6.723,6.723,0,0,0,0,6.71H0V8.433H13.385V6.71h0A6.693,6.693,0,0,0,6.71,0Z"/>
        <path class="cls-5" d="M 11.78492259979248 6.832860469818115 L 11.78492259979248 6.710400581359863 C 11.78492259979248 3.892520666122437 9.508502006530762 1.600000619888306 6.710402488708496 1.600000619888306 C 3.89252233505249 1.600000619888306 1.600002408027649 3.892520666122437 1.600002408027649 6.710400581359863 L 1.600002408027649 6.832860469818115 L 11.78492259979248 6.832860469818115 M 13.38492202758789 8.432860374450684 L 2.444305437165895e-06 8.432860374450684 L 2.444305437165895e-06 6.710400581359863 C 2.444305437165895e-06 3.014300584793091 3.014302492141724 6.640624974352249e-07 6.710402488708496 6.640624974352249e-07 C 10.40651226043701 6.640624974352249e-07 13.38492202758789 3.014300584793091 13.38492202758789 6.710400581359863 L 13.38492202758789 8.432860374450684 Z"/>
      </g>
      <path id="Path_67" data-name="Path 67" class="cls-3" d="M3238.019,2731.037h14.344" transform="translate(-2788.603 357.385)"/>
      <path id="Path_69" data-name="Path 69" class="cls-3" d="M3244.65,2722.236v1.57" transform="translate(-2788 355.041)"/>
    </g>
  </g>
</svg>
