<svg xmlns="http://www.w3.org/2000/svg" viewBox="3168 3817.64 24.123 35.388">
  <defs>
    <style>
      .cls-1 {
        fill: #fff;
      }
    </style>
  </defs>
  <path id="Subtraction_1" data-name="Subtraction 1" class="cls-1" d="M12.061,35.388h0c-.03-.037-3.07-3.782-6.03-8.311a60.461,60.461,0,0,1-4.146-7.26A16.569,16.569,0,0,1,0,13.269,13.88,13.88,0,0,1,3.533,3.886,11.457,11.457,0,0,1,12.061,0,11.459,11.459,0,0,1,20.59,3.886a13.879,13.879,0,0,1,3.533,9.382,16.568,16.568,0,0,1-1.885,6.548,60.464,60.464,0,0,1-4.146,7.26c-2.959,4.527-6,8.273-6.03,8.311Zm0-27.973A5.613,5.613,0,0,0,6.74,13.269a5.613,5.613,0,0,0,5.322,5.854,5.613,5.613,0,0,0,5.321-5.854A5.613,5.613,0,0,0,12.062,7.415Z" transform="translate(3168 3817.64)"/>
</svg>
