<svg xmlns="http://www.w3.org/2000/svg" viewBox="3261.228 2967.351 12.002 16.006">
  <defs>
    <style>
      .cls-1 {
        fill: #336ccb;
      }
    </style>
  </defs>
  <path id="Subtraction_2" data-name="Subtraction 2" class="cls-1" d="M-2782,371.005h0c-.06-.067-6-6.745-6-10a6.008,6.008,0,0,1,6-6,6.008,6.008,0,0,1,6,6c0,3.259-5.94,9.936-6,10Zm0-12.651a2.651,2.651,0,0,0-2.648,2.647,2.651,2.651,0,0,0,2.648,2.648,2.651,2.651,0,0,0,2.648-2.648A2.65,2.65,0,0,0-2782,358.354Z" transform="translate(6049.228 2612.351)"/>
</svg>
